<?xml version="1.0" encoding="UTF-8"?>
<svg xmlns="http://www.w3.org/2000/svg" viewBox="0 0 1500 1500"><path d="M0 0h1500v1500H0z" fill="#FEFEFE"/><path d="M0 0h1500v1500H0zm716 66v2l-2.9-.05c-26.19-.41-26.19-.41-52.1 3.05v2h-18v2l-3.03.18-3.91.26-3.9.24c-3.02-.03-3.02-.03-4.16 1.32a155 155 0 01-6.06.56l-3.35.26L616 78v2l-2.77-.07-3.6-.05-3.59-.08c-3.15-.13-3.15-.13-5.04 2.2q-3.5.55-7 1l-1 1q-3.78.23-7.56.38c-6.13.3-10.78 1.14-16.44 3.62q-2.2.5-4.44.94c-3.25.66-6 1.63-9 3.06-4.06 1.92-7.98 2.85-12.4 3.61-2.33.37-2.33.37-5.16 1.39v2l-1.94.33A63 63 0 00521 104q-2.46.7-4.94 1.38c-4.24 1.21-7.41 2.97-11.05 5.42-2.85 1.7-5.82 2.62-8.99 3.58-2.14.62-2.14.62-4.58 1.68-2.44.94-2.44.94-6.13 1.82-6.71 1.61-12.81 3.94-18.31 8.12q-3 1.02-6 2l-2.44 1.5c-3.08 1.8-6.12 2.62-9.56 3.5v2l-3.12.75c-3.81 1.09-6.74 2.8-9.88 5.25v2l-1.56.31c-4.25 1.2-8.29 2.54-11.44 5.69q-2.99 1.04-6 2a83 83 0 00-4 2v2l-1.75.38A30 30 0 00405 158v2l-1.79.3c-5.26.99-8.05 2.27-12.21 5.7q-2.23.78-4.5 1.44c-4.32 1.3-6.42 3.23-9.5 6.56-3.31 1.81-3.31 1.81-6 3v2a187 187 0 01-7.69 2.94c-2.62.96-2.62.96-4.31 4.06l-3 1-1.5 2c-1.5 2-1.5 2-4.5 3v2l-1.7.26c-2.98.96-4.78 2.54-7.17 4.55a79 79 0 01-8.69 6.5c-2.72 1.52-2.72 1.52-3.44 4.69l-5.87 1.98c-3.1 1.48-4.77 3.69-6.81 6.4C315 220 315 220 312 222v3h-2l-1 2-3 1c-.73 2.02-.73 2.02-1 4l-1.94.38-2.06.62-1 2a80 80 0 01-5 2v3h-2v2l-2.23.32c-8.2 2.01-13.44 9.6-18.38 15.91-3.23 3.74-6.93 6.61-10.82 9.64-3.06 2.54-5.48 5.35-8.01 8.42a21 21 0 01-4.87 3.96c-2.74 1.79-3.7 2.68-4.69 5.75v3l-1.62.63A28 28 0 00234 297v3h-2v2h-3c-1.52 2.25-1.52 2.25-3 5l-2 2.44c-2.11 2.52-2.11 2.52-3.5 5.62-1.51 2.96-3.18 4.62-5.5 6.94v3l-4 1-1 4h-3l-2 7h-3a74 74 0 00-4.75 5.88l-1.33 1.77a326 326 0 00-9.54 13.52C185 360 185 360 183 361c-.91 1.74-.91 1.74-1.62 3.81l-.79 2.08c-.77 2.39-.77 2.39-.59 6.11h-2v3h-3l-.37 1.94L174 380l-2 1q-1.46 2.45-2.85 4.96c-1.6 2.83-3.4 5.53-5.2 8.24-1.18 1.9-1.18 1.9-.95 4.8l-3 1c-1.47 2.21-1.47 2.21-2.69 4.88l-1.32 2.67c-1.18 2.47-1.18 2.47-.99 5.45h-2l-.81 2.88C151 419 151 419 148 421c-1.31 2.13-1.31 2.13-2.44 4.63l-1.3 2.72L143 431l-2.06 4a118 118 0 00-5.01 11.9C135 449 135 449 133 451c-.17 3.08-.17 3.08 0 6h-2l-1 5h-2q-2.02 3.52-4 7.06l-1.16 1.99c-2.53 4.59-3.28 7.71-2.84 12.95h-3a31 31 0 00-2.5 8.25L114 495l-2 1v3h-3l-.59 2.52-.78 3.29-.78 3.27C106 511 106 511 104 514c-.17 2.63-.17 2.63 0 5h-3v7h-2v7l-3 1-.52 2.94a375 375 0 01-4.54 22l-.49 2.09A83 83 0 0189 566l-2 1a561 561 0 00-1 7l-2 3c-2.57 9.64-4.21 20.02-4 30h-3l-.15 2.45-.22 3.24-.22 3.2c-.4 3.04-1.22 5.3-2.41 8.11q-.4 2.97-.72 5.96c-.43 3.1-1.42 6.04-2.28 9.04q-.32 2.18-.56 4.38C70 647 70 647 69 648a89 89 0 00-.46 5.17l-.48 7.02-.22 3.27-.37 5.46q-.44 6.84-.98 13.68a633 633 0 00-1.7 50.24q.02 5.78.02 11.57a1141 1141 0 00.88 44.65l.11 2.83c-.03 2.09-.03 2.09 1.2 3.11a112 112 0 01.25 5.49l.09 3.54.1 3.85c.31 10.28.76 20.54 1.5 30.81l.22 3.3c.44 5.72 1.15 11.25 2.38 16.85.65 3.04 1.06 6.08 1.46 9.16h3l-.06 2.88c-.17 3.03-.17 3.03 1.06 5.12q.27 2.97.44 5.94c.64 9.13.64 9.13 2.56 18.06l2 1c.34 2.44.34 2.44.5 5.56.35 5.08.95 9.6 2.5 14.44l2 1c.59 2.65.74 5.29 1 8l3 1v7l2 1q.61 3.49 1 7h2v9h2l-.07 1.72c-.12 5.19.24 9.41 2.07 14.28l2 1q.32 2.41.59 4.83c.96 5.09 3.4 9.84 5.45 14.57 1.5 4.05 2.27 8.23 3.18 12.44A41 41 0 00114 1012l2 1q1.06 2.99 2 6 1.45 3.51 3 7h2l.33 1.69c2.22 10.65 6.75 19.71 11.67 29.31h2l.31 2.19c.76 3.08 2.01 5.13 3.69 7.81l.89 2.32c2.04 4.92 5.2 9.23 8.11 13.68l1.21 1.98c1.88 3.04 3.38 4.8 6.79 6.02v4h2l.88 3.75A30 30 0 00164 1107h2l2 6h2l.19 2.63c1.01 4.19 2.99 6.14 5.81 9.37l1.38 2.81c1.86 3.66 4.21 6.55 6.78 9.74a86 86 0 016.48 10.48c1.28 2.28 1.28 2.28 4.36 2.97a37 37 0 012.38 4.88c2 4.26 3.41 5.9 7.62 8.12 1.81 3.19 1.81 3.19 3 6h2l.23 1.66c1.06 3.21 2.9 5.21 5.08 7.78l2.37 2.81L220 1185l2.17 2.85L224 1190h2l.31 1.75c.8 2.61 1.88 4.22 3.69 6.25h2v2c1.33 1.67 1.33 1.67 3 3h2l.81 1.69a40 40 0 008.69 11.75c3.45 3.35 5.78 6.08 7.5 10.56h2v2l2.01 1.14c4.21 2.62 7.36 6.06 10.8 9.61a225 225 0 0014.43 13.71 90 90 0 015.95 5.79 33 33 0 0010.75 7.61 17 17 0 015.25 4.52l1.54 1.77A13.4 13.4 0 01309 1279l1.94.38 2.06.62 1 2h2v2h2v2l2.31.81c2.66 1.18 3.73 2.15 5.69 4.19l2.5 1.44c2.5 1.56 2.5 1.56 4 3.75l1.5 1.81c2.63.33 2.63.33 5 0v2a21 21 0 003.63 2.31 49 49 0 017.68 5.5c2.5 2.51 2.5 2.51 5.69 2.19l.06 1.81c.83 2.58.83 2.58 4.25 3.88 2.58.91 5.02 1.78 7.69 2.31v2l3.25 1.69c3.44 1.94 5.3 4.21 7.75 7.31 2.6 1.19 2.6 1.19 5 2l1 2h4v3l3.5 1.75 8.25 4.13 1.96.97 5.39 2.74 3.28 1.66 3.08 1.58c2.38 1.31 2.38 1.31 4.54 1.17v3c2.13 2.8 4.3 3.61 7.63 4.56 2.41.69 2.41.69 4.37 1.44l1 2h4v2l3.13.25c4.3.83 6.29 2.29 9.87 4.75 2.53 1.1 5.1 2.08 7.68 3.06 2.32.94 2.32.94 5.01 2.57 2.38 1.55 2.38 1.55 5.69 2.31 3.94 1.15 7.16 2.92 10.62 5.06a73 73 0 0015.64 7.07c2.36.93 2.36.93 4.36 2.93q3.5.55 7 1l1 1 3.19.44c3.5.51 6.49 1.4 9.81 2.56h2v2l7 1v2l3.75.69c4.01.87 7.56 2.22 11.31 3.87 4.84 2.1 8.72 3 13.94 3.44l7 2h4v2h6v2c9.09 1.39 17.78 2.31 27 2v2c2.29 1.14 3.59 1.1 6.13 1.06l3.87-.06v3a95 95 0 0017.23 2.66c2.77.34 2.77.34 6.12 1.3 3.8 1.08 7.55 1.7 11.46 2.17l2.11.25c5.38.62 10.67.85 16.08.62v2c9.22 1.09 18.44 1.34 27.71 1.61l3.54.11 3.2.09c2.55.19 2.55.19 4.55 1.19 3.26.37 6.54.43 9.81.56l3.24.13c24.02.8 48.18.81 72.2-.13l3.06-.12c4.18.2 4.18.2 7.69-1.44q3.88-.24 7.75-.32l2.35-.06 7.46-.18 5.05-.13L834 1433v-3l2.34.04 3.04.02 3.02.04c2.58.08 2.58.08 4.6-1.1q2.39-.32 4.79-.54l2.85-.26 2.99-.26 3-.28 7.37-.66v-2l3.25.13c5.68.02 11.18-1.09 16.75-2.13l1-3 2.53.07c7.64.12 14.63-.07 21.77-3.02a73 73 0 017.97-2.52l2.94-.79 6.13-1.62 2.93-.78 2.68-.71c2.02-.45 2.02-.45 3.05-1.63q2.55-.48 5.13-.87c4.76-.83 8.5-2.12 12.87-4.13 2.32-.75 4.64-1.38 7-2v-2l2.94.19c7.14-.02 13.67-3.34 20.02-6.32 2-.85 3.92-1.4 6.04-1.87v-2l3.38.13c3.66.28 3.66.28 5.62-2.13q2.28-.9 4.63-1.62 1.21-.4 2.47-.79l1.9-.59v-3l2.5.19c4.31-.23 7.56-1.54 11.5-3.19l2.56-.94c2.64-1.09 2.64-1.09 5.69-3a34 34 0 018.13-3.43c4.4-1.37 7.77-3.53 11.48-6.23 2.3-1.5 4.57-2.46 7.14-3.4v-2l1.79-.3c5.24-.99 8.1-2.21 12.21-5.7a92 92 0 014.19-1.87 79 79 0 0016.95-9.75c1.86-1.38 1.86-1.38 4.24-2.32 4.18-1.69 7.63-4.22 11.06-7.12 2.47-1.87 4.8-2.89 7.67-4.02 2.98-1.45 5.43-3.52 8.02-5.56a23 23 0 016.87-3.36v-2h3l1-2q3.46-1.58 7-3v-2l1.94-.69c2.67-1.14 5.23-2.35 7.81-3.68l2.36-1.22c2.32-1.73 2.22-2.7 2.89-5.41 1.75-1 1.75-1 4-2q2.5-1.95 4.94-4c3.16-2.64 6.32-5.22 9.63-7.68l1.8-1.33q1.72-1.28 3.48-2.54c3.16-2.35 3.16-2.35 5.02-5.74l.13-1.71 2.19-.12c3.34-1.04 4.41-2.65 6.47-5.38 2.05-2.3 4.54-3.33 7.34-4.5v-2h2v-2l2.06-.62c6.38-2.99 10.81-8.21 15.32-13.5a107 107 0 016.62-6.88l2.5-2.5c17.5-17.5 17.5-17.5 20.13-20.06 3.91-3.64 3.91-3.64 5.37-8.44l3-1 1-5 3-1v-2l3-1a70 70 0 007-9.06c2.06-3.03 4.42-5.36 7-7.94v-2l1.79-.7c2.77-1.63 3.9-3.42 5.65-6.11A62 62 0 011298 1163c3.44-4.48 3.44-4.48 4-10h3c1.49-2.17 1.49-2.17 3-5q1.26-1.89 2.56-3.75l1.26-1.8c1.18-1.45 1.18-1.45 3.18-2.45l1-3 2.06-1.94c2.4-2.07 2.4-2.07 1.94-6.06h3l1.69-3.56a52 52 0 015-8.19c2.37-2.9 2.37-2.9 2.83-5.39l.48-1.86 2-1c2.59-4.22 4.82-8.57 6.98-13.02 1-1.94 2.11-3.76 3.27-5.6 1.83-3.53 2.13-5.48 1.75-9.38l2.25-.5c3.52-1.92 4.13-3.79 5.72-7.36 1-2.09 2.14-3.79 3.53-5.64 2.68-3.63 4.6-7.42 6.5-11.5l1.36-2.81 1.39-2.94 1.3-2.73c1.19-2.7 1.19-2.7.95-6.52h3l.81-2.62c1.19-3.38 1.19-3.38 2.82-6.5 1.66-2.95 1.66-2.95 1.37-6.88h3l.25-2.87c1.04-7.21 4.5-16.88 9.75-22.13l.38-3.06c.55-3.51 1.54-6.23 2.87-9.49 1.32-4.32 1.66-8.8 2.13-13.28.64-3.28 1.53-4.64 3.62-7.17.25-2.67.25-2.67 0-5h2c4.15-4.63 3.28-10.18 3-16h2c4.53-13.68 4.53-13.68 5-28h2v-10h4c1.84-7.41 2.24-14.38 2-22h2l.4-2.59.54-3.35.52-3.34c.54-2.72.54-2.72 1.54-3.72q.53-3.41.94-6.84l.26-2.08.8-6.58 1.06-8.66.48-3.9c.46-2.94.46-2.94 1.46-3.94 2.99-18.13 2.2-36.69 2-55h2l.05-27.67.03-12.84.01-12.4.02-4.73v-6.62l.01-3.8c.08-2.87.08-2.87-1.12-4.94a180 180 0 01-.38-9.05l-.18-6.57-.13-4.46L1432 682l-2-1-1-20h-2l.04-3.87.02-5 .03-2.56.01-2.44.01-2.25c.01-1.97.01-1.97-1.11-3.88-.56-3.37-1.03-6.75-1.5-10.13-.2-2.76-.2-2.76-1.5-3.87q-.34-3.27-.56-6.56l-.26-3.63-.18-2.81h-2l.04-2.34.02-3.03.04-3.03c.08-2.58.08-2.58-1.1-4.6q-.35-3.81-.56-7.62l-.13-2.15-.31-5.23h-2v-10h-3l.25-2.87c.04-5.14-2.18-9.53-4.25-14.13h-2l.13-2.06c-.16-3.57-.96-6.57-2.13-9.94l-2-1q-.56-3.5-1-7l-1-1q-.55-3.5-1-7h-3l.06-2.94c.3-2.93.3-2.93-1.06-4.06q-.55-3.5-1-7h-2l-.31-3.62c-.48-3.98-1.87-6.81-3.69-10.38l-.44-3.25c-1.1-7.33-4.64-14-7.69-20.71-.87-2.04-.87-2.04-1.93-5.41-.7-2.62-.7-2.62-2.34-3.9-2.23-2.41-2.99-4.96-4.1-8.04-2.86-8.73-2.86-8.73-8.5-15.69h-2v-4l-2-1c-1.04-2-1.04-2-2.06-4.44l-1.04-2.43-.9-2.13-1-2h-3v-6l-2-1-1-3h-2l.13-2.19A17.6 17.6 0 001345 410l-2-1a137 137 0 01-3-6.37c-1.52-3.43-2.92-6.51-5-9.63h-2l-.31-2.81c-.75-3.48-1.21-3.89-3.69-6.19q-1.49-2.64-2.95-5.29c-1.38-2.24-3.17-3.89-5.05-5.71l-1-3h-2v-6h-2v-3h-3l-.29-1.72c-.87-2.8-2.24-4.5-4.08-6.78l-1.84-2.28L1305 348l-1.6-2.28-1.4-1.72h-2v-4c-2.29-2.79-2.29-2.79-5-5h-2l-.31-2.37c-.47-2.96-.47-2.96-3.69-4.63a228 228 0 01-3-5q-2.26-3.04-4.6-6.04c-1.4-1.96-1.4-1.96-2.44-4.12-.87-2.07-.87-2.07-3.33-3.21-4.13-2.56-6.12-6.09-7.63-10.63q-2.2-1.87-4.45-3.67c-1.55-1.33-1.55-1.33-3.61-3.95-1.81-2.49-1.81-2.49-4.44-3.88-2.94-1.76-4.4-3.81-6.5-6.5a381 381 0 00-5-4l-1-2h-2v-2c-1.33-1.67-1.33-1.67-3-3h-2l-.37-1.75A30 30 0 001233 262h-2l-1-3h-2v-2l-1.94-.81C1224 255 1224 255 1223 252c-3.22-2.33-3.22-2.33-7-3l-.81-1.94c-1.08-2.39-1.08-2.39-4.19-3.06l-1-2h-2v-2a254 254 0 00-5-3l-1-2h-3l-2-5h-4v-2l-2-1-1.31-2.31c-1.91-3.04-3.71-4.7-6.69-6.69a85 85 0 00-5-1l-1-2h-2v-3l-2.19-.69c-4.4-2.05-7.12-5.53-10.31-9.12-2.3-2.44-2.3-2.44-5.31-2.5l-2.19.31v-3h-3v-2c-2.07-1.94-2.07-1.94-4.69-3.94l-2.63-2.09A88 88 0 001137 184l-3.12-2.19c-2.74-2.08-2.74-2.08-5.88-1.81v-3c-2.91-1.26-4.8-2-8-2v-2l-1.94-.37-2.06-.63-1-2h-2v-3l-3.12-1.25c-3.6-1.54-6.65-3.53-9.88-5.75-5.33-3.22-10.89-5.96-16.47-8.72l-3.59-1.78-1.82-.89a95 95 0 01-12.11-7c-4.6-3.17-7.43-4.19-13.01-3.61v-3a67 67 0 00-12.7-6.09c-5.69-2.25-11.11-5.24-16.53-8.08a73 73 0 00-12.2-4.97c-4.32-1.44-8.52-3.18-12.75-4.87-2.79-1.16-2.79-1.16-5.82-.99v-2l-1.69-.33a78 78 0 01-12.95-3.75 436 436 0 00-23.47-8.29q-2.55-.86-5.08-1.82c-3.06-.88-5.64-.96-8.81-.81l-1-3-7-1v-2l-2.56-.11-3.44-.2-3.37-.18a28 28 0 01-7.38-1.92c-4.93-1.98-9.98-2.81-15.19-3.71l-5.65-1.01-2.5-.44C891 79 891 79 890 78q-2.74-.53-5.5-.94l-3.38-.52-3.56-.54-6.93-1.06-3.12-.48C865 74 865 74 863 73q-2.84-.12-5.66-.1l-3.4.01-3.56.03-3.59.01L838 73v-2l-1.8-.06a2176 2176 0 01-13.63-.53l-2.51-.09C818 70 818 70 816 68a86 86 0 00-7.16-.38l-2.14-.05-6.76-.13-6.78-.15-4.22-.08c-4.83-.1-4.83-.1-5.94-1.21q-3.14-.13-6.26-.11h-1.98l-6.51.01-4.51.01-11.87.02-12.1.02z" fill="#000000"/><path d="M760 359c2 1.13 2 1.13 3 3 .56 2.88.56 2.88 0 6-4.9 5.13-11.11 7.61-17.51 10.48q-3.8 1.7-7.57 3.44l-5.57 2.55c-33.13 15.17-52.71 37.7-71.18 68.58q-1.93 3.2-3.89 6.36C636.42 493.57 619.68 530.24 604 567l1.85-.74c17.8-7.12 35.82-13.2 54.1-18.98q5.7-1.8 11.39-3.65l3.4-1.1 6.13-1.98c4.63-1.49 9.25-2.86 13.95-4.08 7.3-1.99 11.39-4.12 15.93-10.34l2.61-3.53 1.33-1.81a499 499 0 016.25-8.29l1.24-1.62a418 418 0 0121.77-25.61q2.82-3.13 5.55-6.33c3.34-3.85 6.93-7.41 10.58-10.96 2.08-2.03 2.08-2.03 3.92-4.98h2l.71-1.7c3.82-6.82 11-12.15 16.91-17.2a306 306 0 007.73-7.12 283 283 0 0117.94-15.79q3.65-2.97 7.19-6.07c13.51-11.69 28.36-21.7 43.52-31.12l2.34-1.47a158 158 0 0118.54-9.65l2.92-1.32c16.56-7.36 34.75-13.2 52.95-8.61 8.18 3.25 14.23 7.46 18.34 15.39 1.77 5.17 1.39 10.29.91 15.66l-.18 2.27c-3.35 21.58-23.13 40.79-39.63 53.42A380 380 0 01910 454l-2 1.38A462 462 0 01875 476l-2.5 1.45c-15.88 9.05-32.7 16.62-49.56 23.63a367 367 0 00-17.18 7.69A82 82 0 01797 512c6.04-.46 12.05-1 18.06-1.75 11.88-1.41 23.69-1.59 35.64-1.57q5.1 0 10.19-.04a292 292 0 0158.67 5.74l3.25.64c10.24 2.08 20.61 4.39 29.88 9.36 3.74 1.83 4.46 1.79 8.31.62a99 99 0 005.38-3.12c4.73-2.84 9.5-5.37 14.5-7.69l1.87-.88c5.38-2.47 10.25-4.66 16.25-4.31.38 2.25.38 2.25 0 5-4.99 3.98-10.76 6.2-16.62 8.63l-8.09 3.38c-4.41 1.62-4.41 1.62-7.29 4.99l2.18.79c19.44 8.38 35.41 28.89 43.43 47.89 5.99 15.66 5.49 34.44-1.09 49.76A102 102 0 01998 651l-2.02 2.52c-16.64 19.6-40.61 31.52-64.98 38.48h-2l1 2q3.18 1.04 6.44 1.88c22.69 6.23 41.33 19.45 53.24 40.02 5.11 9.68 8.9 20.09 9.32 31.1l.16 3.22c.53 20.73-4.49 38.65-14.16 56.78l-1.76 3.31c-16.86 30.23-47.45 51.67-80.29 61.29A258 258 0 01889 895l-2.83.69c-20.62 4.34-44.15 2.61-62.17-8.69-12.46-9.61-19.56-21.39-22-37-2.3-23.64 7.32-44.07 22-62 9.14-11.05 22.06-24.51 36.56-27.81L863 760c.37 2.26.37 2.26 0 5-2.49 1.96-2.49 1.96-5.87 3.81q-1.81 1.04-3.61 2.1l-1.82 1.05c-17.63 10.73-34.22 30.13-39.45 50.29-3.94 16.94-3.94 33.91 5.02 49.27 7.27 10.41 18.8 14.64 30.73 17.48 4.68.52 9.29.56 14 .5l3.54.05c11.39-.05 21.56-3.1 31.65-8.3l2.04-1.04A77 77 0 00915 869l2.44-2.01c18.79-15.91 33.22-40.64 40.56-63.99l1.02-3.15c7.75-25.35 9.64-53.39-2.47-77.77C950 710.72 942.29 703.74 930 699c-3.43-.92-3.43-.92-7-1l-2.71-.15c-8.74-.28-15.84 1.59-24.03 4.46-15.53 5.45-15.53 5.45-21.07 2.84-2.37-1.61-3.95-3.29-4.73-6.09-.29-4.04.24-5.68 2.79-8.93 5.35-4.14 5.35-4.14 8.93-4.12l2.36.35c13.19 1.63 27.84 2.26 40.46-2.36l2.55-.88c2.54-.94 4.99-1.99 7.45-3.12l2.61-1.17c20.47-10.08 32.12-29.73 39.36-50.59 7.31-21.76 8.89-51.08-.48-72.37-4-7.71-9.31-13.09-16.49-17.87-13.43.73-29.21 20.56-38 30a231 231 0 00-9 11l-2.14 2.62c-14.09 17.63-26.14 37.18-37.34 56.73l-4.7 8.12A437 437 0 00853.98 674c-3.81 7.76-7.91 15.38-11.98 23l-1.41 2.63c-18.3 34.17-38.56 68.1-64.07 97.45-2.45 2.84-4.8 5.74-7.14 8.67a136 136 0 01-11.53 12.38c-2.03 1.93-2.03 1.93-3.85 4.87h-2l-.81 1.81a19 19 0 01-4.21 5.26l-1.83 1.7-1.96 1.79-2.04 1.88c-39.97 36.56-86.81 63.59-142.4 61.72-18.35-1.05-38.16-6.19-51.06-19.98-7.23-9.35-8.55-18.62-7.69-30.18 1.4-6.79 3.67-11.63 9.22-15.88 6.12-3.85 11.62-3.8 18.78-3.12 5.21 1.39 9.29 4.24 12.14 8.84 2.71 6.82 1.37 13.4-1.3 19.96a215 215 0 01-2.53 5.56c-1.96 5.46-2 9.73 0 15.27 3.81 5.89 11.14 8.83 17.71 10.5 19.97 4.06 40.12.74 58.98-6.13l2.34-.84c28.28-10.52 50.56-30.88 68.06-54.96q2.42-3.32 4.88-6.61a430 430 0 0020.1-29.98l5.21-8.3q16.6-26.25 31.58-53.44c5.13-9.29 10.52-18.43 15.9-27.57q2.12-3.62 4.22-7.26a523 523 0 0118.46-29.41l1.44-2.16C835.46 646.13 846.06 631.1 858 617l2.68-3.2A581 581 0 01878 594l1.39-1.53c9.1-9.98 18.32-19.71 28.61-28.47l3.01-2.64A446 446 0 01939 539l1.99-1.49c4.77-3.51 4.77-3.51 7.01-3.51-1.72-3.44-5.79-4.05-9.25-5.31l-2.55-.94c-9.55-3.38-19.3-5.64-29.2-7.75l-3-.68c-49.29-10.25-103.06-2.16-150.73 11.52-3.4.96-6.76 1.67-10.27 2.16v-2a31 31 0 00-6.62 8.52l-1.55 2.95L733 546l-1.09 2.09c-35.21 65.75-35.21 65.75-57.25 136.63-.66 3.28-.66 3.28-1.5 6.34-2.17 8.18-2.45 16-2.47 24.44l-.02 3.44c.05 5.38.12 10.05 2.33 15.06 12.58-6.32 24.22-14.39 34.98-23.44C710 709 710 709 712.2 707.97c2.16-.9 2.16-.9 2.8-3.97 1.36-1.33 1.36-1.33 3.19-2.81A200 200 0 00746 672l1.87-2.23c11.21-13.49 20.58-28.5 29.13-43.77l1.12-1.97c6.98-12.31 12.39-25.25 17.76-38.32q1.34-3.25 2.78-6.45c1.59-3.86 2.77-7.75 3.9-11.76l.63-2.18L805 559l1.15-4.03.85-2.97q2.5-.06 5 0c1.57 1.57 1.17 3.13 1.19 5.31-.21 13.64-4.38 26.7-8.19 39.69l-.77 2.63c-6.79 22.79-17.55 43.89-29.21 64.54q-1.05 1.9-2.02 3.83l1.17-1.35 1.58-1.71 1.55-1.73c1.7-1.21 1.7-1.21 3.9-.89l1.8.68c-2.17 14.88-25.41 32.48-35.38 42.5l-2.52 2.54C726.69 726.4 706.26 741.82 681 749l-3 .86-10.19 2.83-3.27.9c-18.74 5.02-42.3 8.97-60.54.41l-2.86-1.29c-12.58-6.23-22.37-16.2-27.02-29.58-6.36-21.19-.17-45.21 7.88-65.13 1.48-2.48 1.48-2.48 3-4 3.19-.25 3.19-.25 6 0l-1.19 3.56-.82 2.5q-1.07 3.17-2.2 6.32c-6.2 17.67-11.33 39.39-3.6 57.39 5.23 10.41 12.04 16.84 22.81 21.23l2.16.97c14.78 5.62 31.45 1.93 45.84-2.97l3.51-1.16L660 741l-1.36-1.77c-10.77-14.61-14.19-30.65-13.98-48.56q.03-3.15.02-6.3c.06-28.68 8.5-57.83 21.32-83.37l1.69-3.77c7.46-16.7 17.05-32.28 27.38-47.33A55 55 0 00699 543a292 292 0 00-24.73 7.67l-11.54 3.99-2.41.83a2418 2418 0 01-30.8 10.32 1255 1255 0 00-26.1 8.98q-3.2 1.13-6.42 2.21a98 98 0 00-2 5c-9.85 19.18-22.5 37.22-36 54l-2.19 2.73a598 598 0 01-8.09 9.81 354 354 0 01-22.56 24.56l-5.18 5.19A228 228 0 01500 697l-4.41 3.55a298 298 0 01-28.72 20.3 378 378 0 00-5 3.14c-7.54 4.63-15.47 7.96-23.69 11.15a176 176 0 00-4.49 1.84c-6.61 2.79-13.27 4.59-20.25 6.21l-3.25.78c-15.44 3.66-34.11 6.08-49.19.03l-2.19-.81c-6.8-2.9-11.63-8.08-14.49-14.87-1.61-4.58-1.78-8.88-1.7-13.69l.04-2.55c.41-16.05 8.35-27.78 19.34-39.08l1.82-2.01c22.79-24.37 59.22-41.37 89.9-53.11q3.86-1.5 7.65-3.13a701 701 0 0141.47-15.96 892 892 0 0016.66-5.98 601 601 0 0117-6l2.7-.91q3.17-1.01 6.38-1.86c6.26-1.85 10.65-3.31 14.29-8.91q1.63-3.04 3.13-6.13l3.37-6.44.95-1.81c3.78-7.17 8.03-14.07 12.24-21l1.1-1.81c16.39-26.92 34.13-52.73 54.34-76.94l1.3-1.58a299 299 0 0119.01-20.92l1.99-1.99c3.65-3.61 7.38-7.02 11.34-10.27 1.5-1.22 1.5-1.22 2.36-3.24l-1.98 1.32a159 159 0 01-17.52 9.95q-5.31 2.66-10.56 5.46c-10.97 5.83-21.72 10.96-33.5 14.96l-2.65.9c-9.04 2.98-17.69 4.79-27.23 4.72l-2.5-.01c-10.62-.21-19.74-2.57-27.74-9.83-9.62-10.19-10.55-24.25-10.49-37.54.14-3.28.5-6.44.94-9.69.48-4.63.46-9.28.48-13.93l.06-3.09c.1-7.11.1-7.11-3.31-13.22-.98-1.2-.98-1.2-2.79-1.12-22.54 1.17-44.55 23.78-60.21 38.12l-2.87 2.59c-9.95 9-19.52 18.13-27.87 28.66a153 153 0 01-7.45 8.25c-8.73 9.31-15.91 19.94-23.23 30.36l-1.64 2.33-3.03 4.38c-2.39 3.44-4.7 6.69-7.91 9.43h-2c1.77-18.52 19.8-35.7 31.5-49.21q1.68-2 3.28-4.07c6.35-8.03 13.43-15.21 20.7-22.41q3.13-3.1 6.24-6.21l4.03-4.02 1.85-1.84a252 252 0 0141.75-33.19q2.19-1.4 4.36-2.83c12.03-7.64 24.82-11.97 39.09-9.79 7.05 1.78 12.43 5.45 16.51 11.52 4.63 8.65 4.94 17.04 4.74 26.65l-.07 7.36-.17 11.53q-.09 5.58-.13 11.17l-.08 3.48c-.04 6.29.14 10.09 4.4 14.86 3.22 3.18 5.72 3.46 10.19 3.5 44.68-1.24 96.49-40.23 129.62-67.65A249 249 0 01741 365l3.1-1.95c5.54-3.27 9.45-5.09 15.9-4.05" fill="#040404"/><path d="M555 589c-20.76 53.63-65.37 114.64-117 141l-3.33 1.74c-15.84 7.84-37.32 12.73-54.73 7.19-7.88-3.6-12.09-8.79-15.56-16.55-3.39-9.38-3-22.61.49-31.88 14.61-28.76 46.23-45.13 74.04-58.49q3.35-1.63 6.69-3.3c25.89-12.77 52.9-22.2 80.31-31.04l6.08-1.97 10.63-3.45 3.15-1.02 2.83-.9 2.45-.79C553 589 553 589 555 589m378.2-217.34c4.1 3.06 7.18 6.47 8.8 11.34 1.8 18.44-6.74 34.24-17.95 48.18-21.81 26.5-54.81 42.7-85.6 56.4-5.17 2.32-5.17 2.32-10.13 5.04-3.08 1.84-6.34 2.99-9.7 4.2l-4.27 1.57-2.2.8a479 479 0 00-10.1 3.94l-1.9.76q-4.81 1.94-9.52 4.1c-4.94 2.26-10.06 3.96-15.18 5.72a188 188 0 00-12.95 5.04A65 65 0 01748 523c1.53-6.31 5.22-11.12 8.88-16.37l2.03-2.95a586 586 0 0116.73-22.91 497 497 0 003.9-5.15c8.19-10.85 17.08-21.1 26.23-31.14q1.89-2.1 3.73-4.23c4.6-5.33 9.45-10.34 14.44-15.31l2.3-2.31c4.76-4.75 9.65-9.27 14.76-13.63l2.9-2.52a285 285 0 0121.53-16.36q2.04-1.46 4-2.98c15.78-11.9 44.28-26.08 63.77-15.48" fill="#FDFDFD"/><path d="m559 989 11.85-.05 6.02-.04 3.81-.01 3.52-.01c2.8.11 2.8.11 4.8 1.11v2l-3.44.94c-3.35.69-3.35.69-4.56 2.06q-.24 3.66-.32 7.32l-.05 1.96-.19 7.28L580 1028h49l-.19-15.81-.02-4.98-.08-3.92.01-2.04c-.01-2.21-.01-2.21-.72-5.25-3.71-3.08-7.26-3.54-12-4v-2h34v2l-3.44.94c-3.35.69-3.35.69-4.56 2.06q-.17 3.33-.18 6.68l-.02 2.11-.04 6.95-.01 2.4-.05 12.53q-.02 6.5-.08 12.97l-.04 9.96q0 2.39-.03 4.78-.04 3.35-.02 6.69l-.02 3.84c.2 3.15.2 3.15 2.32 4.98 2.69 1.38 5.18 1.77 8.17 2.11v3h-39v-3l1.76-.08 2.37-.17 2.32-.14c3.59-.86 5.71-2.23 8.55-4.61.92-3.46.92-3.46.8-7.39l.08-3.91v-4.95L629 1034h-49l.31 16.31.08 5.14.1 4.04.02 2.11c.08 2.88.16 4.92 1.82 7.33 2.43 1.56 4.83 1.75 7.67 2.07v3h-32l-1-3 3.31-.25c3.62-.4 3.62-.4 5.4-2.37 1.73-3.2 1.67-5.58 1.68-9.21l.01-2.06q.02-3.36 0-6.71l.01-4.67q0-4.9-.02-9.77-.02-6.27.01-12.54.01-4.82 0-9.64l.01-4.62-.02-6.46-.01-3.71c-.13-2.97-.13-2.97-1.74-4.87-2.14-1.46-4.09-1.78-6.64-2.12z" fill="#0B0B0B"/><path d="m901.94 988.63 2.65-.15c2.4.52 2.4.52 3.88 2.55a83 83 0 014.5 10.94l.84 2.36q.9 2.5 1.77 5l2.8 7.87 3.79 10.65a4896 4896 0 007.26 20.3l2.02 5.63c3.02 9.4 3.02 9.4 9.47 16.46l1.83.63 3.25 1.14v2h-37v-3l2.37-.41 3.07-.53 3.06-.53c2.43-.28 2.43-.28 3.5-1.53.74-6.73-1.6-12.12-4-18.33l-2.25-5.91-1.01-2.63C913 1039 913 1039 913 1037c-12.37.48-12.37.48-25 1a290 290 0 00-10 30c4.44 1.9 8.23 2.5 13 3v3h-31v-3q2.59-1 5.18-1.96c4.79-2.75 6.12-7.98 7.88-12.92l.9-2.46c3.29-9.19 6.34-18.46 9.4-27.73a844 844 0 018.49-24.5 79 79 0 002.18-7.83l.97-3.6c2.44-1.23 4.22-1.28 6.94-1.38" fill="#070707"/><path d="M742.25 993.19c9.94 6.85 18.39 16.74 20.75 28.8 1.12 14.2-2.52 26.66-11.26 37.93-8.15 8.68-19.12 14.8-31.19 15.42-9.21.17-17.21-.01-25.55-4.34l-2.57-1.25c-9.73-5.23-16.93-13.24-20.43-23.75l-1.25-3.62c-2.56-11.68-1.18-22.76 4.79-33.03a49.95 49.95 0 0166.71-16.16m-51.25 8.8a66 66 0 00-5 9l-1.07 1.84c-4 9.32-3.25 22.7.19 32.1 4.89 11.08 11.74 20.77 23.33 25.42 7.93 2.04 17.32 1.7 24.55-2.35 8.94-6.37 14.71-14.38 16.72-25.26 1.64-15.96-.05-27.9-10.24-40.64-5.48-6.1-12.68-10.41-20.83-11.57-11.74-.31-19.76 2.62-27.65 11.47" fill="#080808"/><path d="M781 990h41v2l-2.52.15-3.29.23-3.27.21c-3.11.22-3.11.22-5.92 2.41-.44 3.11-.44 3.11-.34 6.84v2.13q0 3.48.05 6.98l.01 4.83q.02 6.37.07 12.73l.06 12.99.15 25.5q5.97.22 11.95.33 3.02.07 6.04.2c7.13.1 12.04-.01 17.51-4.85a80 80 0 006.5-8.68h2c-1.77 7.09-5.73 13.46-9 20h-62v-3l12-2c1.14-3.42 1.16-6.11 1.19-9.72l.03-2.05.05-6.73.02-2.32.06-12.15q.02-5.03.08-10.06.08-6.08.08-12.15l.05-4.63q.04-3.23.02-6.47l.03-3.72c-.31-3.16-.31-3.16-2.91-4.88-3.23-1.34-6.23-1.78-9.7-2.12z" fill="#060607"/><path d="M1422 614h1l.38 3.19c.43 3.66.43 3.66 1.68 6.25 1.33 3.62 1.07 6.72.94 10.56h2l.35 3.29 1.3 12.04.57 5.21a952 952 0 001.06 9.86c.1 3.6.1 3.6 1.72 6.6q.13 2.56.1 5.13l-.01 3.13-.03 3.3-.01 3.31-.05 8.13 3 1v112h-2v24l-3 1 .02 1.73.04 7.71.03 2.72.01 2.59.01 2.39C1431 851 1431 851 1430 852a192 192 0 00-.69 9.72L1429 867h-2v12l-4 1v11h-2v13h-2v10h-2l-1 10h-2l-1 9h-2l1-15h2v-10h4q1.13-11 2-22h2l-.13-3.12c.13-3.88.13-3.88 1.07-6.66 1.17-3.54 1.65-6.85 2.1-10.55l.25-2.05.77-6.43.79-6.48.7-5.85c.45-2.86.45-2.86 1.45-3.86q.6-3.93 1-7.87l.26-2.56c1.37-14.8 1.43-29.72 1.74-44.57h2l-.34-27.67-.16-12.84-.15-12.4-.06-4.73-.08-6.62-.05-3.8c.04-2.87.04-2.87-1.16-4.94q-.12-3.48-.1-6.98l.01-2.07.03-6.57.01-4.46.05-10.92-3-1v-20h-2l-.18-3.87-.26-5-.12-2.56-.12-2.44-.11-2.25c-.11-1.97-.11-1.97-1.21-3.88-.56-3.37-1.03-6.75-1.5-10.13-.2-2.76-.2-2.76-1.5-3.87q-.1-3.29-.06-6.56l.02-3.63z" fill="#4E4E4E"/><path d="M702.18 62.87h97.95C802 63 802 63 804 64v3l2.72-.04c7.17-.05 14.17.12 21.28 1.04v2l2.07-.07c8.79-.17 17.25.83 25.93 2.07v1h-18v-2l-1.8.03-8.07.1-2.84.04-2.71.02-2.51.03C818 71 818 71 816 69a82 82 0 00-7.16-.38l-2.13-.05q-3.38-.08-6.77-.14a1498 1498 0 01-11-.22c-4.82-.1-4.82-.1-5.94-1.2q-3.12-.2-6.26-.22l-1.98-.03-6.51-.08-4.5-.06-11.87-.16-12.11-.16L716 66v2l-3.02.06q-5.63.11-11.27.25l-4.85.11c-8.6.17-16.94.46-25.41 2.15-3.53.62-6.87.56-10.45.43v2h-18v2l-3.02.4-3.91.53-3.91.53c-3.01.2-3.01.2-4.16 1.54q-3.02.1-6.06.06c-1.65 0-1.65 0-3.35-.03l-2.6-.03v2l-2.76.15-3.6.22-3.6.21c-3.13.12-3.13.12-5.03 2.42q-3.49.55-7 1l-1 1q-2.52.1-5.06.06l-2.78-.03L583 85l3-1v-2l2.49-.15 3.26-.23 3.24-.2c2.86-.4 4.5-1.09 7-2.42 3.26-.13 3.26-.13 6 0l1-3h12v-2c2.78-1.38 5.22-1.3 8.3-1.5l3.79-.25 6-.38 5.77-.37 3.5-.22c2.57.01 2.57.01 3.65-1.28 5.37-1 10.56-1.1 16-1l1-3h27v-2c2.3-1.16 3.6-1.13 6.18-1.13" fill="#262626"/><path d="M713.75 1173.31c3.47 2.6 5.86 4.52 7.25 8.7.4 5.23-.04 8.6-3 13-3.24 3.25-6.33 5.3-11 5.5a22.3 22.3 0 01-13.38-5.5c-2.72-3.36-2.98-6.64-2.89-10.89A15.7 15.7 0 01695 1175c6.1-4.7 11.79-5 18.75-1.69" fill="#F9F8F9"/><path d="M1130 1129c4.42 1.82 7.89 4.32 10.56 8.31 1.72 4.41 2.1 7.25.44 11.69a24.4 24.4 0 01-8.37 8.44c-5.37 1.15-9.04 1.39-13.88-1.13-6.44-5.41-6.44-5.41-7.13-9.64-.26-5.71.43-9.3 4.38-13.67 4.36-3.76 8.32-5.21 14-4" fill="#FBFBFB"/><path d="M852 1129a27 27 0 0110 7.25 22 22 0 011 11.75c-2.49 4.64-4.94 8.31-10 10-6.24.76-10.6.4-15.63-3.52-3.78-4.08-3.91-8.35-3.82-13.71.72-4.41 3-7.05 6.45-9.77 3.9-2.29 7.55-2.79 12-2" fill="#F8F7F7"/><path d="M914.38 1173.75c3.33 2.86 5.26 4.92 5.94 9.36.28 5.45-.6 8.68-4.32 12.89-4.13 3.66-7.37 4.65-12.75 4.39-4.7-.81-7.91-2.97-11.18-6.45a26 26 0 01-1.08-13.94c2.04-3.81 4.74-6.17 8.33-8.5a22 22 0 0115.05 2.25" fill="#F9F8F9"/><path d="M808 1130c4.08 2.01 6.58 4.18 9 8 .74 4.48.55 8.68-1.19 12.88-2.87 3.36-6.2 6.8-10.76 7.36-6.59.21-9.84-1.47-14.86-5.8-2.7-3.26-2.52-7.14-2.48-11.15.54-4.33 2.95-7.06 6.06-9.93 4.31-2.63 9.37-1.95 14.23-1.36" fill="#F8F8F8"/><path d="M589 1417h12v2l10 1v3l3.38-.06c3.62.06 3.62.06 5.62 1.06 2.66.28 5.31.45 7.98.62 3.02.38 3.02.38 6.04 1.31 5.65 1.71 11.57 2.07 17.42 2.7l3.66.4 8.9.97v2l3.36.08 17.68.42 7.67.18 2.42.05c5.64.16 5.64.16 7.87 1.27 3.26.37 6.54.43 9.81.56l3.24.13c24.02.8 48.18.81 72.2-.13l3.06-.12c4.18.2 4.18.2 7.69-1.44q3.53-.1 7.06-.06l3.91.02 3.03.04v3l-3.46.17-12.67.63-5.48.27-7.88.39-2.49.12c-4.14.13-4.14.13-8.02 1.42q-2.22.13-4.45.11h-2.79l-3.02-.01-3.08-.01-9.78-.03-6.63-.01L727 1439l-1-3-3.47.02-12.71.03-5.51.03-7.9.02-2.5.01q-2.96-.01-5.91-.11l-1-1a98 98 0 00-5.13-.32l-3.13-.12-3.3-.12-3.31-.13-8.13-.31-1-3h-17v-2l-3.88.05c-5.06 0-10.03-.4-15.06-.92l-2.57-.24-2.45-.26-2.21-.22C618 1427 618 1427 616 1425c-2.89-.46-2.89-.46-6.12-.62l-3.33-.23-2.55-.15v-3h-11v-2h-4z" fill="#585858"/><path d="m510 1172 7.63-.25 2.36-.11c5.11-.08 7.96 1 12.01 4.36 1.43 2.85 1.31 4.83 1 8a274 274 0 01-4 5c-.58 2.59-.58 2.59 0 5a17 17 0 003 3v2c-1.75-.12-1.75-.12-4-1l-1.62-3c-2.03-3.18-2.03-3.18-4.86-3.62a86 86 0 00-7.52-.38v8l-4 1z" fill="#2C2B2C"/><path d="m690 1130 7.19-.13 2.23-.05c4.97-.04 8.75.41 12.39 3.93 1.6 3.03 1.67 4.86 1.19 8.25l-2.06 2.5c-2.27 2.38-2.27 2.38-1.81 5.56A31 31 0 00712 1157c-1.75-.12-1.75-.12-4-1l-1.62-3c-2.03-3.18-2.03-3.18-4.86-3.62a86 86 0 00-7.52-.38v9h-4z" fill="#222122"/><path d="m593 1172 7.19-.19 2.23-.08c4.43-.06 7.05.61 10.58 3.27 2 2 2 2 2.44 5.81-.13 3.16-.51 4.32-2.13 7.19-5.18 3.13-10.41 2.39-16.31 2v10h-4z" fill="#1D1D1D"/><path d="M1422 614h1l.38 3.19c.43 3.66.43 3.66 1.68 6.25 1.33 3.62 1.07 6.72.94 10.56h2l.35 3.29 1.3 12.04.57 5.21a952 952 0 001.06 9.86c.1 3.6.1 3.6 1.72 6.6q.22 4.38.28 8.78l.06 2.67.16 8.49.22 11.15.04 2.61c-.03 4.29-.03 4.29 1.24 8.3q.14 3.4.13 6.83v9.14l.01 4.91-.01 10.33v23.25l.01 4.81A513 513 0 011434 806h-2v-20h2l-.34-27.67-.16-12.84-.15-12.4-.06-4.73-.08-6.62-.05-3.8c.04-2.87.04-2.87-1.16-4.94q-.12-3.48-.1-6.98l.01-2.07.03-6.57.01-4.46.05-10.92-3-1v-20h-2l-.18-3.87-.26-5-.12-2.56-.23-4.69c-.11-1.97-.11-1.97-1.21-3.88-.56-3.37-1.03-6.75-1.5-10.13-.2-2.76-.2-2.76-1.5-3.87q-.1-3.29-.06-6.56l.02-3.63z" fill="#B9B9B9"/><path d="M766 1171h2v29h-3v-20h-2l-.63 2.38c-1.86 4.91-4.58 9.18-7.37 13.62-3.35-1.12-3.58-1.48-5.26-4.38l-1.09-1.84-1.34-2.34L743 1180v20h-4v-28c4 1 4 1 5.37 2.64l1.21 2.11 1.33 2.28 1.34 2.41 1.39 2.39c3.36 5.86 3.36 5.86 3.36 8.17h2l.85-2.19c2.69-6.58 5.82-13.14 10.15-18.81" fill="#0E0E0E"/><path d="M949 1129c2.81 1.03 3.87 1.79 5.46 4.38l1.34 2.96 1.46 3.22 1.49 3.38 1.54 3.36c3.71 8.27 3.71 8.27 3.71 11.7-1.94-.69-1.94-.69-4-2l-1-5h-18l-1 5-1 2h-3c1.79-6.02 4.45-11.62 7.06-17.31l1.4-3.07c3.41-7.49 3.41-7.49 4.54-8.62" fill="#1A1A1B"/><path d="M561 1171h2q3.01 6.12 6 12.25l1.73 3.51 1.65 3.38 1.52 3.11c1.1 2.75 1.1 2.75 1.1 6.75l-3-1-3-6h-15l-4 7h-2c.56-4.89 2.05-8.52 4.31-12.87l1.9-3.7L556 1180q1.2-2.4 2.37-4.81C560 1172 560 1172 561 1171" fill="#19191A"/><path d="m899 1003 3 1a30 30 0 012.04 5.28l1.07 3.24 1.08 3.42 1.11 3.4c2.7 8.32 2.7 8.32 2.7 10.66h-19c1.13-7.88 1.13-7.88 2.37-11.55l.8-2.37.83-2.39.83-2.46c2-5.89 2-5.89 3.17-8.23" fill="#F0F0EF"/><path d="M112 496c1.19 3.43.8 5.38-.44 8.75l-.87 2.42L110 509h-2l.15 2.61c-.17 3.74-1.04 6.22-2.53 9.64l-1.33 3.14C103 527 103 527 101 529q-.5 3.21-.81 6.44c-.77 6.06-2.35 10.65-5.08 16.07-1.58 3.53-1.89 6.65-2.11 10.49h-2l-.44 3.88c-.27 2.38-.48 3.96-1.56 6.12q-.34 2.55-.56 5.13l-.26 2.75L88 582h-2v9l-2 1c-.47 2.36-.47 2.36-.63 5.06l-.22 2.79L83 602h-2v11l-3 1v5h-1v-12h3l.18-2.05.54-5.88q.26-2.82.46-5.64c1.25-15.86 1.25-15.86 4.82-19.43l.44-3.5.56-3.5 2-1c.83-2.28.83-2.28 1.47-5.07l.79-3.16.8-3.33.82-3.25c1.4-5.73 2.54-11.32 3.12-17.19l3-1v-7h2v-7h3l-.25-1.94c.31-3.78 1.69-6.44 3.29-9.83A27 27 0 00109 499h3z" fill="#A7A7A7"/><path d="M63 734h2l.07 2.27.66 21.15.34 10.87.33 10.48.18 5.97.22 6.86c-.06 2.35-.06 2.35 1.2 3.4a112 112 0 01.25 5.49l.09 3.54.1 3.85c.31 10.28.76 20.54 1.5 30.81l.22 3.3c.44 5.73 1.15 11.24 2.43 16.85.59 3.11.55 6.01.41 9.16h3a73 73 0 012.63 17l.11 2.35L79 893h-2l-1-10h-2l-.4-2.81-.54-3.63-.52-3.62c-.23-2.82-.23-2.82-1.54-3.94q-.1-3.78-.06-7.56l.01-2.16L71 854h-2l-.08-1.71a959 959 0 00-.48-10.36l-.12-2.58-.11-2.38c-.1-2.05-.1-2.05-1.21-3.97-1.02-7.34-1.28-14.66-1.5-22.06l-.25-7.54-.37-11.82-.38-11.45-.11-3.6-.11-3.31-.09-2.91c-.05-2.34-.05-2.34-1.19-4.31q-.13-3.6-.1-7.2l.01-2.14.03-6.78.01-4.6z" fill="#545454"/><path d="M528 1129c4.5 2.25 4.5 2.25 6.66 5.08l1.41 1.83 1.43 1.9 2.84 3.71 1.26 1.66q2.67 3.44 5.4 6.82l1-20h4v28c-5-1-5-1-6.99-3.64L543 1151q-2.5-3.45-5.12-6.81l-1.34-1.77c-2.35-3.19-2.35-3.19-5.54-5.42v21h-3z" fill="#1E1D1D"/><path d="m289 242 1 2c-4.42 6.33-9.46 11.72-14.94 17.14l-2.56 2.55-8.06 8-5.43 5.4-12.1 12.01a444 444 0 00-4.82 4.88c-1.98 1.92-3.66 2.8-6.09 4.02l-1 3h-2v2h-2l-1 3-2-1 1-3h3v-2h2l.29-1.77c.87-2.73 2.1-3.99 4.15-5.98l1.87-1.86C242 289 242 289 244 289l.37-1.75c1.21-4.34 2.7-6.59 6.44-9.12a34 34 0 007.66-7.45c2.05-2.25 4.38-4 6.78-5.87 4.96-3.94 8.66-8.23 12.54-13.21 3.27-3.84 7.08-6.74 11.21-9.6" fill="#C8C8C8"/><path d="m1016.86 1170.89 4.98.03 2.72.02h2.74l6.7.06v4h-16v9h14v3h-14v10h17l-1 3h-20l-.05-11.9-.02-4.06-.03-5.81-.01-3.54c.15-3.63.15-3.63 2.97-3.8" fill="#2B2A2C"/><path d="m757.33 64.8 12.38.01 11.96.01 5.69.01 7.85.02h2.36c5.32.03 5.32.03 6.43 1.15q2.67.33 5.35.53 1.61.14 3.27.26l3.45.27 3.45.27L828 68v2l2.07-.07c8.79-.17 17.25.83 25.93 2.07v1h-18v-2l-1.8.03-8.07.1-2.84.04-2.72.02-2.5.03C818 71 818 71 816 69a82 82 0 00-7.16-.38l-2.13-.05q-3.38-.08-6.77-.14l-11-.22c-4.83-.1-4.83-.1-5.94-1.2q-3.12-.2-6.26-.22l-1.98-.03-6.51-.08-4.5-.06-11.87-.16-12.11-.16L716 66v2h-33v-1c24.79-2.13 49.47-2.28 74.33-2.2" fill="#ADADAD"/><path d="M1130 1129c4.42 1.82 7.89 4.32 10.56 8.31 1.72 4.41 2.1 7.25.44 11.69a24.4 24.4 0 01-8.37 8.44c-5.37 1.15-9.04 1.39-13.88-1.13-6.44-5.41-6.44-5.41-7.13-9.64-.26-5.71.43-9.3 4.38-13.67 4.36-3.76 8.32-5.21 14-4m-14 9c-1.36 4.29-1.54 7.7.19 11.88 3.22 3.85 3.22 3.85 7.86 5.48 4.22.26 7.08.02 10.45-2.67 2.89-3.11 3.38-4.79 3.94-8.94-.51-4.33-1.49-6.3-4.46-9.42-3.15-2.12-5.86-2.17-9.57-1.87-4.21.94-5.68 2.11-8.41 5.54" fill="#19191A"/><path d="M713.75 1173.31c3.47 2.6 5.86 4.52 7.25 8.7.4 5.23-.04 8.6-3 13-3.24 3.25-6.33 5.3-11 5.5a22.3 22.3 0 01-13.38-5.5c-2.72-3.36-2.98-6.64-2.89-10.89A15.7 15.7 0 01695 1175c6.1-4.7 11.79-5 18.75-1.69m-16.75 4.7c-2.36 2.9-2.96 4.7-3.5 8.43.66 4.72 2.16 6.21 5.5 9.56 2.33 1.16 3.79 1.16 6.37 1.2l2.34.03A13 13 0 00714 1195c3.2-4.8 3.62-8.4 3-14-2.07-3.28-3.77-4.85-7-7-5.68-.65-8.64.33-13 4" fill="#1E1D1E"/><path d="M852 1129a27 27 0 0110 7.25 22 22 0 011 11.75c-2.49 4.64-4.94 8.31-10 10-6.24.76-10.6.4-15.63-3.52-3.78-4.08-3.91-8.35-3.82-13.71.72-4.41 3-7.05 6.45-9.77 3.9-2.29 7.55-2.79 12-2m-13.88 7.69c-1.66 3.41-1.65 6.63-1.12 10.31 1.56 4.02 2.39 5.59 6 8 4.21.61 7.94.44 11.88-1.19 2.59-2.21 3.87-3.61 5.12-6.81.29-4.76-.35-8.05-3.06-12-6.68-4.55-12.78-3.74-18.82 1.69" fill="#121212"/><path d="M914.38 1173.75c3.33 2.86 5.26 4.92 5.94 9.36.28 5.45-.6 8.68-4.32 12.89-4.13 3.66-7.37 4.65-12.75 4.39-4.7-.81-7.91-2.97-11.18-6.45a26 26 0 01-1.08-13.94c2.04-3.81 4.74-6.17 8.33-8.5a22 22 0 0115.05 2.25m-19.02 5.05c-2.37 3.84-2.14 7.85-1.37 12.2 2.26 3.09 2.26 3.09 5 5l1 1c4.22.45 7.93.42 11.88-1.12 3.54-3.13 4.93-6.28 5.5-10.94-.44-3.48-1.15-5.21-3.37-7.94-6.67-4.21-13-4.37-18.64 1.8" fill="#191919"/><path d="M808 1130c4.08 2.01 6.58 4.18 9 8 .74 4.48.55 8.68-1.19 12.88-2.87 3.36-6.2 6.8-10.76 7.36-6.59.21-9.84-1.47-14.86-5.8-2.7-3.26-2.52-7.14-2.48-11.15.54-4.33 2.95-7.06 6.06-9.93 4.31-2.63 9.37-1.95 14.23-1.36m-15.88 7.19c-1.47 3.67-1.95 6.95-1.12 10.81 1.76 3.02 3.83 5.41 7 7 3.79.53 7.46.85 10.89-1.05 2.15-1.77 3.86-3.44 5.11-5.95.4-4.77.47-7.08-1.75-11.37-3-3.51-4.58-4.45-9.13-4.94-4.73.47-7.88 1.86-11 5.5" fill="#121112"/><path d="M790 1172h19v3h-15v9h14v3l-14 1-1 9h17v3h-20z" fill="#1C1C1D"/><path d="M651 1130h20v3h-17v9h16v3l-15 1-1 9h18v3a1642 1642 0 01-12.8.09l-2.73.01-2.52.01C652 1158 652 1158 651 1157q-.12-3-.1-6l.01-3.69.03-3.87.01-3.89z" fill="#0E0D0E"/><path d="M681 68v1c-6.74 1.26-13.13 2.26-20 2v2h-18v2l-3.03.4-3.91.54-3.9.52c-3.01.2-3.01.2-4.16 1.54q-3.03.1-6.06.06l-3.35-.02L616 78v2l-2.77.15-3.61.23-3.58.21c-3.15.11-3.15.11-5.04 2.41q-3.5.55-7 1l-1 1q-2.54.1-5.06.06l-2.79-.02L583 85l3-1v-2l2.48-.15 3.27-.22 3.23-.22A18 18 0 00602 79c3.25-.12 3.25-.12 6 0l1-3h12v-2c2.76-1.38 5.2-1.31 8.29-1.5l3.79-.25 5.99-.37 5.78-.38 3.5-.22c2.57.01 2.57.01 3.65-1.28a245 245 0 0111.55-1.33c5.85-.58 11.57-.86 17.45-.67" fill="#3C3C3C"/><path d="M572 1130h19v3h-16v9h15v3h-15v10h17v3h-20z" fill="#0D0C0D"/><path d="M84 916h1v5l3 1 .59 6.15L89 930l2 1v7l3 1v7h2v9h2l.18 1.93.26 2.51.24 2.49c.11 2.06.11 2.06 1.32 3.07q.06 3 0 6l3 1 .25 2.88c.83 5.93 3.54 11.32 5.9 16.78.95 2.62.8 3.77-.15 6.34-2-1-2-1-2.78-2.89l-.72-2.36a86 86 0 00-2.56-7.31c-1.31-3.4-2.08-6.9-2.94-10.44a101 101 0 00-2-7l-2-1c-3.15-7.68-4.31-15.76-4-24h-3a57 57 0 01-2-17h-3z" fill="#525252"/><path d="M485 1171.68q2.54 1.1 5 2.32v2l-2.63-.36c-7.3-1.12-7.3-1.12-14.06 1.05-2.9 2.76-2.9 2.76-4.31 6.3.16 3.83.79 7.39 2 11 3.66 1.97 6.72 2.24 10.8 2.14l5.2-.13 1-11 3 1c.47 8.1.47 8.1-1.31 11.5-3.5 3.1-7.68 2.9-12.11 2.85-4.16-.56-6.72-2.36-9.58-5.35-3.08-4.23-3.48-7.7-2.71-12.75 1.45-4.58 4.6-8 8.7-10.42 3.66-1.5 7.29-1.41 11.02-.15" fill="#19191B"/><path d="M76 619h1c-.46 4.72-1.04 9.3-2 13.94-1.52 7.93-1.66 16.01-2 24.06h-2v19l-3 1v30h-2v27h-1a484 484 0 011.84-52.88l.21-2.37.4-4.66c.56-6.73.91-13.46 1.19-20.21.25-5.77.25-5.77 1.36-6.88q.55-3.5 1-7c.89-6.89.89-6.89 2-8q.55-3 1-6c.89-5.89.89-5.89 2-7" fill="#A9A9A9"/><path d="m665.94 1171.38 2.65.26c2.4.37 2.4.37 5.4 1.37v3l-2.51-.3-3.3-.34-3.26-.34c-3.11-.3-3.11-.3-5.92 1.98-.73 2.56-.73 2.56-1 5l2.2.5c10.96 2.76 10.96 2.76 14.8 6.5.57 3.6.83 5.8-1.31 8.87-4.17 2.77-8.87 2.61-13.7 2.13-3.55-1.5-3.55-1.5-6-3v-2q1.16.23 2.32.5c4.9.65 9.75.57 14.69.5v-6q-1.23-.38-2.48-.74l-3.27-1.01-3.23-1a15.4 15.4 0 01-7.02-5.25c-.5-3-.5-3 0-6 3.46-4.28 5.6-5.21 10.94-4.63" fill="#1F1E1F"/><path d="M939 1171h19v4h-16v10h15v3h-15v12h-3z" fill="#272627"/><path d="M1017 1130h19v2h-16v11h15v2h-15v10h17l-1 3h-19z" fill="#09080B"/><path d="m978.86 1170.89 4.98.03 2.72.02h2.74l6.7.06-1 4h-15v9l14 1v2l-14 1-1 11h-3l-.06-13.43-.03-3.88-.01-3.68-.01-3.41c.15-3.54.15-3.54 2.97-3.71" fill="#19191B"/><path d="m483.34 1130.52 1.66.48v3l-2.74-.32-3.58-.37-3.55-.38c-3.08-.2-3.08-.2-5.1 1.3-1.19 1.73-1.19 1.73-1.12 3.83 1 2.25 1 2.25 3.92 3.1l3.54.9c7.5 1.94 7.5 1.94 9.63 4.94.43 2.94.43 2.94 0 6-2.24 2.85-3.55 3.85-7 5-5.36.35-8.62.45-13-3l-1-2 2.31.5c4.91.67 9.74.58 14.7.5v-6l-3-1.02-3.89-1.35-1.97-.68c-2.92-1.02-4.94-1.74-7.15-3.95-.42-3.71-.48-6.11 1.31-9.44 4.78-2.78 10.72-2.22 16.03-1.04" fill="#141415"/><path d="M694 1133c11.63-.25 11.63-.25 15 2 .66 6.98.66 6.98-1.14 9.74-3.89 2.63-9.39 1.4-13.86 1.26z" fill="#FBFBFB"/><path d="M514 1175c11.63-.25 11.63-.25 15 2 .39 3.53.51 6.01-1.14 9.21-1.86 1.79-1.86 1.79-4.78 2.18l-3.27-.14-5.81-.25z" fill="#FCFCFC"/><path d="M864.06 1171.69h3.1c2.78.3 4.46.88 6.84 2.3v3l-1.73-.44c-7.48-1.85-7.48-1.85-14.7.14-3.1 2.69-3.1 2.69-4.57 6.3.2 5.3 1.31 8.2 5 12 4.38 2.2 10.37 1.17 15 0-1.75 3.89-1.75 3.89-4 5-4.9.55-8.87.54-13.38-1.55-3.7-3.44-6.46-6.5-6.75-11.71.36-4.52 1.2-8.16 4.13-11.73 3.78-2.74 6.41-3.4 11.06-3.31" fill="#1A1A1B"/><path d="M597 1175c10.71-.29 10.71-.29 15 2 .28 3.64.44 6.18-1.31 9.44-4.41 2.56-8.66 1.8-13.69 1.56z" fill="#F8F8F8"/><path d="M608 1129h3l.9 2 4.04 8.94 1.42 3.15 1.35 3 1.26 2.78c.85 2.06.85 2.06 2.03 3.13l.92-2.27a292 292 0 016.71-15.42l1.16-2.45C632 1130 632 1130 635 1129a33 33 0 01-3 9.47l-1.19 2.48-1.25 2.55c-3.5 7.15-3.5 7.15-6.56 14.5-1.83-.16-1.83-.16-4-1-1.46-2.36-1.46-2.36-2.8-5.46l-1.46-3.37-1.49-3.54-1.54-3.53c-3.71-8.65-3.71-8.65-3.71-12.1" fill="#191919"/><path d="m847.82 1426.9 4.75.04 2.44.01 5.99.05v1l-3 .18q-1.9.14-3.87.26l-3.87.24c-3.14.11-3.14.11-5.26 1.32q-2.81.1-5.62.06L834 1430v3l-3.2.07-11.7.3-5.07.12-7.27.2-2.31.04c-3.52-.2-3.52-.2-6.45 1.27q-4.86.38-9.75.56l-3.2.13c-19 .65-38.03.4-57.05.31v-1l3.65-.08c27.77-.56 27.77-.56 55.54-1.42l3.07-.1q1.35-.07 2.72-.12l2.3-.09c1.76-.02 1.76-.02 2.72-1.19q2.78-.12 5.57-.1l3.4.01 7.2.04 8.83.05 1-3 1.73-.08q3.86-.16 7.7-.36l2.73-.12 2.59-.13 2.4-.1c3.22-.36 2.6-1.2 6.67-1.3" fill="#A7A7A7"/><path d="M1332 388c2.5 1.31 2.5 1.31 5 3v3h2l2 7h2a657 657 0 013.03 7.32c.93 2.56 1.51 5 1.97 7.68h2v4l4 1v4h2l.99 2.81 1.32 3.63 1.3 3.62L1361 438l3 1 1 8-3-1v-4l-3-1c-1.17-2-1.17-2-2.19-4.44l-1.04-2.43C1355 432 1355 432 1355 430h-3v-6l-3-1v-3h-2c-1.32-3.62-2-6.1-2-10l-3-1c-1.57-2.84-1.57-2.84-3.12-6.37l-1.58-3.53c-1.3-3.1-1.3-3.1-2.3-6.1h-2z" fill="#B0B0B0"/><path d="M750 1130h23v3h-9v24h-4v-24h-9z" fill="#353434"/><path d="M1074 1130h24l-1 3h-9v25l-4-1v-25h-10z" fill="#252327"/><path d="m631 1425 24 1 1 3 3.83-.04 4.98-.02 2.53-.03 2.43-.01 2.24-.01c1.99.11 1.99.11 4.99 1.11v2l2.35-.02 10.53-.04 3.7-.03 3.54-.01 3.27-.01c2.61.11 2.61.11 4.61 1.11q2.39.22 4.79.32l2.85.12 2.99.12 3 .13 7.37.31v1l-11.37.06-3.28.03-3.12.01-2.89.01C703 1435 703 1435 701 1434q-2.87-.2-5.75-.28l-3.54-.11-3.71-.11c-8.04-.23-16.01-.55-24-1.5v-2l-1.78.05c-6.7.1-13.15-.5-19.78-1.42l-3.02-.39-2.86-.39-2.59-.35-1.97-.5z" fill="#C2C2C2"/><path d="M905 1130h4v25h15v3h-19z" fill="#1D1D1E"/><path d="M1358 1066c.95 2.17 1.14 3.56.4 5.82q-1.15 2.62-2.4 5.18h-2l-1 5h-3l-.88 2.63-3.12 9.37h-2v5h-3v4h-2v4h-2l-1 5h-2l-.25 2.38-.75 2.62-4 2c-.81 2.56-.81 2.56-1 5h-2v2l-2-1c3.64-6.54 3.64-6.54 5.62-9.12 1.6-2.18 2.47-4.36 3.38-6.88h2l.31-1.75c.69-2.25.69-2.25 2.06-4.06 1.73-2.32 2.73-4.67 3.81-7.33a46 46 0 012.94-5.42c2.05-3.28 2.05-3.28 2.38-6.75l.5-2.69 1.9-.93c2.56-1.3 3.02-2.3 4.16-4.88a82 82 0 014.94-9.19" fill="#525252"/><path d="M1388 499c2 1 2 1 3 3.47l2 6.06c.74 2.62.74 2.62 3 3.47 2.56 6.58 3.94 13.23 5.25 20.16l.75 2.84 2 1v6h2c2.01 5.78 2.22 10.9 2 17h-1a27.4 27.4 0 01-2-12l-3-1-.44-3.44c-.17-3.37-.17-3.37-1.56-4.56q-.06-3.5 0-7h-3a37 37 0 01-2-14h-2l-.59-1.79c-1.66-5.06-1.66-5.06-3.6-10.02-.81-2.19-.81-2.19-.81-6.19" fill="#636363"/><path d="m802.16 1432.9 3.9.04 3.91.02 3.03.04v3l-3.46.17-12.67.63-5.48.27-7.88.4-2.49.11c-4.14.13-4.14.13-8.02 1.42q-2.23.14-4.45.11h-5.81q-1.52-.03-3.08-.02l-9.79-.03h-6.62L727 1439l-1-2h47v-2l2.28-.08q5.08-.16 10.16-.36l6.99-.25 3.16-.1c3.15-.28 3.14-1.2 6.57-1.3" fill="#161616"/><path d="M63 734h2l.07 2.27.66 21.15.34 10.87.33 10.48.18 5.97.22 6.86c-.06 2.35-.06 2.35 1.2 3.4q.13 3.11.1 6.22l-.01 3.82-.03 4.02-.01 4.04L68 823h-1a669 669 0 01-2.66-45.42l-.09-3.7-.08-3.3c0-2.57 0-2.57-1.17-4.58q-.13-3.6-.1-7.2l.01-2.14.03-6.78.01-4.6z" fill="#979797"/><path d="M1432 694h1l.18 3.65.26 4.73.12 2.4c.13 4.25.13 4.25 1.44 8.22q.14 3.4.13 6.83v9.14l.01 4.91-.01 10.33v23.25l.01 4.81A513 513 0 011434 806h-2v-20h2l-.34-27.67-.16-12.84-.15-12.4-.06-4.73-.08-6.62-.05-3.8c.04-2.87.04-2.87-1.16-4.94q-.12-2.18-.1-4.35l.01-2.58.03-2.69.01-2.72z" fill="#BEBEBE"/><path d="M1423 874h1l-1 17h-2v13h-2v10h-2l-1 10h-2l-1 9h-2l1-15h2v-10h4q1.13-11 2-22h2l-.06-3.19c.05-3.14.33-5.78 1.06-8.81" fill="#454545"/><path d="M146 1077c3.39 3.01 5.51 6.3 7.75 10.2 1.29 2.09 1.29 2.09 4.25 3.8v4h2l.73 2.27 1.02 2.98.98 2.95c1.36 2.99 2.96 4.53 5.27 6.8v3h2l1.25 3.19a24 24 0 003.81 6.37c2.16 2.72 3.01 5.12 3.94 8.44h-2l-.99-1.86-1.32-2.45-1.3-2.43A24 24 0 00169 1119c-1.89-3.09-2-4.17-2-8h-3c-3.8-6.33-3.8-6.33-4.94-10.12-.89-3.04-.89-3.04-3.43-5.25-3.91-3.91-5.9-8.43-7.63-13.63l-2-1z" fill="#646464"/><path d="M977 1130h23v2l-9 1-1 25h-3l-1-25h-8z" fill="#070607"/><path d="M510 1172h12l1 2h-9v14h7l-1 2h-7v10h-3z" fill="#1F1F20"/><path d="M1410 933c2.78 8.03-.71 18.52-4 26h-2v6l-3 1 .31 3.5c.04 5.09-2.16 8.62-5.31 12.5h-1q.14-2.62.31-5.25l.18-2.95c.56-3.09 1.54-4.42 3.51-6.8.71-2.65.71-2.65 1-5h2l.44-1.94c.56-2.06.56-2.06 1.56-3.06q.34-2.77.56-5.56l.26-3.07.18-2.37h2l.4-2.34.54-3.03.52-3.03c.54-2.6.54-2.6 1.54-4.6" fill="#5A5A5A"/><path d="m1433 694 3 1v93h-1l-.03-2.83-.31-26.4-.16-13.58-.15-13.09-.06-5-.08-6.99-.02-2.1c-.02-3.63-.02-3.63-1.19-7.01q-.1-4.31-.06-8.62l.01-2.43z" fill="#5D5D5D"/><path d="m784 65 9.44-.06 2.72-.03 2.59-.01 2.39-.01C803 65 803 65 804 66q2.67.33 5.35.54l3.27.26 3.44.26A1245 1245 0 00828 68v2l2.06-.07c8.8-.16 17.25.84 25.94 2.07v1h-18v-2l-1.8.03-8.07.1-2.84.05-2.72.02-2.51.03C818 71 818 71 816 69c-3.19-.43-3.19-.43-6.94-.56l-2.07-.11q-4.39-.24-8.78-.43l-6.4-.34-3.88-.18L785 67z" fill="#909090"/><path d="M381 1130h23v2h-10v26h-3l-1-25-9-1z" fill="#242224"/><path d="M470 1375c4.47 1.42 8.71 3.11 13 5v2l2.1.35c3.27.73 6.22 1.85 9.34 3.09q6.2 2.48 12.56 4.56v2l2.94-.19c4.68-.03 8.73 1.54 13.06 3.19v2h7v3h6l1 2-9-1v-2l-7-1v-2l-3.44-.44C514 1395 514 1395 513 1394l-3.5-.5c-3.5-.5-3.5-.5-4.5-1.5l-3.44-.44C498 1391 498 1391 496 1389a94 94 0 00-5.19-1.87A64 64 0 01478 1381l-3.87-2.12C471 1377 471 1377 470 1375" fill="#777777"/><path d="M1026 122c3.38.54 6.7 1.11 10 2v2h3l1 2q3.49.61 7 1v2l4 1v2h5v2l2.06.29c3.58.86 6.68 2.36 9.94 4.02l1.83.9A51 51 0 011080 148q1.96 1.07 4 2l-1 2c-11.79-5.79-11.79-5.79-16.83-9.26-4.5-3-7.75-4.4-13.17-4.74v-3l-1.75-.31c-2.25-.69-2.25-.69-4.06-2.13-2.3-1.64-4.27-2.14-6.98-2.82-4.97-1.66-9.57-4.32-14.21-6.74z" fill="#494949"/><path d="M1133 1320v2h-2v2h-5l-.69 1.94c-1.31 2.06-1.31 2.06-3.94 2.81l-2.37.25-1 3c-1.82.99-1.82.99-4.13 1.88a43 43 0 00-10.18 5.97c-1.69 1.15-1.69 1.15-5.32 2.65-3.67 1.63-5.59 3.65-8.37 6.5h-3v2h-6c6.29-5.45 13.59-9.3 21-13a74 74 0 008.44-6.06c2.47-1.87 4.79-2.89 7.66-4.02 3.01-1.46 5.5-3.53 8.1-5.62a10.5 10.5 0 016.8-2.3" fill="#6E6E6E"/><path d="m959.44 1403.31 1.56.7c-2 2-2 2-4.56 2.5q-1.2.23-2.44.5l-1 2h-9v2l-10 1v2h-7l-1 3-15 1 1-2c1.89-.57 1.89-.57 4.25-1a37 37 0 007.16-1.98 60 60 0 018.84-2.59c3.68-.62 3.68-.62 6.75-2.44q2.54-.48 5.13-.88c3.52-.6 6.58-1.27 9.8-2.8 3.07-1.32 3.07-1.32 5.5-1" fill="#525252"/><path d="M580 1034h47v1l-12.75.85-10.59.71-2.04.14c-3.67.23-7.3.31-10.98.21-3.78-.33-3.78-.33-6.01 2.53L583 1042l-3 1z" fill="#DFDFE0"/><path d="M112 496c1.19 3.43.8 5.38-.44 8.75l-.87 2.42L110 509h-2l.15 2.61c-.17 3.74-1.04 6.22-2.53 9.64l-1.33 3.14C103 527 103 527 101 529a131 131 0 00-2 6.75A217 217 0 0195 549c-1.2-3.53-.8-6.13-.06-9.75l.59-2.98L96 534l3-1v-7h2v-7h3l-.25-1.94c.31-3.78 1.69-6.44 3.29-9.83A27 27 0 00109 499h3z" fill="#898989"/><path d="M361 1130h4v28h-4z" fill="#4A494D"/><path d="M84 916h1v5l3 1 .59 6.15L89 930l2 1v7l3 1v7h2v9h2v8h-1a833 833 0 01-3.12-10.35A32 32 0 0193 943h-4a57 57 0 01-2-17h-3z" fill="#BCBCBC"/><path d="M643 73v2l-3.03.4-3.91.54-3.9.52c-3.01.2-3.01.2-4.16 1.54q-3.03.1-6.06.06l-3.35-.02L616 78v2l-2.77.15-3.61.23-3.58.21c-3.15.11-3.15.11-5.04 2.41q-3.5.55-7 1l-1 1q-2.54.1-5.06.06l-2.79-.02L583 85l3-1v-2l2.48-.15 3.27-.22 3.23-.22c2.9-.21 2.9-.21 4.76-1.36 3.11-1.44 6.12-1.8 9.51-2.3l2.11-.32q3.31-.51 6.64-.99l6.64-1 6.03-.9c9.9-1.61 9.9-1.61 12.33-1.54" fill="#7F7F7F"/><path d="M419 1351c2.94.38 2.94.38 6 1l1 2a37 37 0 004.75 2.56l2.61 1.32A31 31 0 00441 1360v2l2.13-.25c3.8.33 5.75 2.11 8.87 4.25 2.73.78 2.73.78 5 1v2h3l-1 3-5.19-2.31-2.92-1.3c-2.89-1.39-2.89-1.39-5.51-3.01-3.07-1.78-5.88-2.04-9.38-2.38v-2h-4l-1.31-1.37c-1.75-1.94-1.75-1.94-5.19-2.63-4.6-1.31-4.6-1.31-6.5-4z" fill="#ABABAB"/><path d="M1365 448c3.9 2.6 4.6 5.63 6.06 9.88 2.44 8.13 2.44 8.13 7.94 14.12.81 2.1.81 2.1 1.44 4.63a45 45 0 004.89 11.58c.85 2.28.45 3.53-.33 5.79l-.99-2.27-1.32-2.98-1.3-2.95a39 39 0 00-4.39-6.8q-1.02-2.5-2-5l-1.62-2.56C1372 469 1372 469 1372 465h-2l-1.94-5.69-1.09-3.2A64 64 0 011365 448" fill="#9C9C9C"/><path d="m703 1173-2.31 2.19c-3.58 3.74-5.48 6.11-6.13 11.31.51 4.07 1.57 5.63 4.44 8.5l2 1v3c-3.93-1.31-6.31-2.83-9-6-1.46-4.37-1.87-8.61-.28-12.97 2.56-4.86 5.58-8.93 11.28-7.03" fill="#171717"/><path d="M949 1135h2l2.5 4.81 1.41 2.71C956 1145 956 1145 956 1148h-12c.77-3.85 1.33-6.01 3.06-9.31l1.1-2.12z" fill="#F5F4F5"/><path d="m562 1176 2 4 1.63 3c1.37 3 1.37 3 1.37 7h-12c3.88-10.18 3.88-10.18 7-14" fill="#F3F3F3"/><path d="M376 1325q2.16.68 4.31 1.38l2.43.77c2.26.85 2.26.85 5.26 2.85v2l4 1v2l1.7.37a46 46 0 017.05 2.69l2.42 1.1 1.83.84v2l3.44.81L412 1344l1 3c-4.39-1.1-7.48-2.19-11-5q-2.5-1.03-5-2-4.02-1.95-8-4v-3h-4l-1-2-2.94-1.44C378 1328 378 1328 376 1325" fill="#9E9E9E"/><path d="m897 1173 2 1-2 2.88c-2.6 4.57-2.99 8.97-2 14.12 2.66 3.95 4.16 4.82 8.81 5.81l3.19.19-1 2c-7.2.49-7.2.49-10.88-1.75-4.23-4.49-4.65-8.45-4.59-14.48.75-4.4 3.18-6.9 6.47-9.77" fill="#100F10"/><path d="M144 424h3a96 96 0 01-4.38 9.69c-2.2 4.33-4.03 8.72-5.73 13.28C136 449 136 449 134 451q-.6 2.99-1 6h-2l-1 5h-2l-1 2 1-5h2l.23-2.05a36.5 36.5 0 016.43-16.76A17 17 0 00139 434h2v-5h2z" fill="#606060"/><path d="M76 619h1a393 393 0 01-2.5 19.06A541 541 0 0072 656h-2v10h-1l-.06-8.94-.03-2.57-.01-2.45-.01-2.27C69 648 69 648 70 647q.55-3.5 1-7c.89-6.89.89-6.89 2-8q.55-3 1-6c.89-5.89.89-5.89 2-7" fill="#5A5A5A"/><path d="M896 81c19.9.9 19.9.9 24 5q3.27.34 6.56.56l3.63.26L933 87v2l3.44.38L940 90l1 2h-5v-2l-3.44.06C929 90 929 90 928 89q-2.74-.31-5.5-.5c-5.39-.39-5.39-.39-6.5-1.5q-2.52-.34-5.06-.56l-2.79-.26L906 86v-3h-10z" fill="#A6A6A6"/><path d="M739 1172h1l1.46 5.96q.69 2.54 1.54 5.04.12 2 .1 4.01l-.01 2.3-.03 2.38-.01 2.41-.05 5.9h-4z" fill="#2F2E30"/><path d="M444 1129h3v29h-3z" fill="#070707"/><path d="M558 1179c1.39 4.18-.18 6.13-2 10l11 1v2l-2.7-.03c-6.53-.15-6.53-.15-12.05 2.66-1.23 2.12-1.23 2.12-2.25 5.37h-2c.56-4.95 2.18-8.93 4.44-13.31l.94-1.92c2.36-4.64 2.36-4.64 4.62-5.77" fill="#131215"/><path d="M960 97c3.47.42 6.17 1.07 9.38 2.5a23 23 0 007.68 2c4.03.51 6.37 1.68 9.94 3.5l3.69.5c3.31.5 3.31.5 4.73 1.97 2.48 2.4 5.3 2.39 8.62 2.91l1.96.62 1 3-5.31-1.44-2.99-.81q-2.87-.8-5.7-1.75v-2l-1.69-.11a42 42 0 01-12.92-2.93c-4.41-1.77-8.93-3.23-13.41-4.78C962 99 962 99 960 97" fill="#4E4E4E"/><path d="M579.56 84.94 582 85v3l-3.94.38c-4.7.53-9.56 1.08-14.06 2.62l-1 2q-3.04.4-6.09.66c-2.15.2-2.15.2-3.9 2.34a35 35 0 01-14 2v2l-4-1h3v-2a70 70 0 0110.24-2.87 50 50 0 009.5-3.06c5.1-2.16 10.26-3.33 15.66-4.45 2.9-.7 3.17-1.61 6.15-1.68" fill="#9B9B9B"/><path d="M86 574c.56 1.94.56 1.94 1 4l-1 1a67 67 0 00-.5 4c-.39 3.89-.39 3.89-1.5 5q-.35 3.53-.56 7.06l-.26 3.91L83 602h-2v11l-3 1v5h-1v-12h3l.18-2.05.54-5.88q.26-2.82.46-5.64c1.25-15.86 1.25-15.86 4.82-19.43" fill="#9F9F9F"/><path d="M1422 614h1l.38 3.19c.43 3.66.43 3.66 1.68 6.25 1.33 3.62 1.07 6.72.94 10.56h2c2.3 16.71 2.3 16.71 2 25h-1l-1-16h-2c-1.85-3.71-1.93-8.06-2.5-12.13-.2-2.76-.2-2.76-1.5-3.87q-.1-3.29-.06-6.56l.02-3.63z" fill="#727272"/><path d="M1113 1142c2 3 2 3 3.38 6 1.68 3.12 2.61 4.24 5.62 6 2.82.36 2.82.36 5.75.19l2.98-.08 2.27-.11c-1 3-1 3-3 4-6.11.51-9.14.09-14-4-2.87-2.87-3.92-4.18-4.31-8.25.31-2.75.31-2.75 1.31-3.75" fill="#0D0D0E"/><path d="M1408 559c2.64 1.32 2.7 2.37 3.63 5.13A30 30 0 011413 576h3v10h2v10h-1c-1.26-5.07-2.27-9.73-2-15h-3l-.37-3.44-.63-3.56-2-1c-.41-3.16-.41-3.16-.62-7.06l-.23-3.91z" fill="#BEBEBE"/><path d="M1233 264h4l1 5 3 1v2h2v2l3 1v2h2l2 3 2 1c2 1 2 1 4 4-.37 2.19-.37 2.19-1 4l-1.21-1.46-1.6-1.91-1.58-1.9c-1.69-1.95-1.69-1.95-4.61-3.73v-2l-3-1v-2h-2v-2l-3-1v-2h-2z" fill="#9F9F9F"/><path d="M312 219c2.19.31 2.19.31 4 1l-3 2-1 3h-2l-1 3h-3l-1 4-1.94.31-2.06.69-1 3-5 1v3h-2v2l-3-1c1.45-3.83 3.36-5.22 7-7h3v-2h2v-3h2v-3h2v-2h3v-2c1.25-1.69 1.25-1.69 3-3" fill="#525252"/><path d="M906 1420a18 18 0 01-7.19 1.06L895 1421l-1 3h-11v2l-2.81.18-3.63.26-3.62.24c-2.83 0-2.83 0-3.94 1.32-2.67.14-5.32.04-8 0v-1h7v-2l1.82-.24 8.12-1.13 2.86-.39 2.73-.39 2.52-.35 1.95-.5 1-2c2.8-.45 2.8-.45 6.31-.69l3.49-.26c2.7-.04 4.66.12 7.2.95" fill="#5E5E5E"/><path d="m516 106-1.57.77c-4.53 2.23-4.53 2.23-8.87 4.79-3.04 1.71-6.1 2.7-9.42 3.74-2.27.71-2.27.71-4.89 1.89-2.54.92-4.57.96-7.25.81 4.76-4.2 8.62-6 15-6v-3h7l1-3c6.75-1.13 6.75-1.13 9 0" fill="#8D8D8D"/><path d="M70 834h1v9h2c1.26 2.52 1.21 4.41 1.32 7.23l.37 9.69L75 868h-2l-.4-3.21-.54-4.16-.26-2.12c-.46-3.88-.46-3.88-1.8-7.51q-.1-4.31-.06-8.62l.01-2.43z" fill="#BFBFBF"/><path d="M804 66h25l1 3h20v2l2 1-24-2v-2l-1.7.04A244 244 0 01804 67z" fill="#282828"/><path d="M1290 1171c1 3 1 3 .07 5.04l-1.38 2.15-1.37 2.17-1.32 1.64h-2v3c-1.39 1.46-1.39 1.46-3.25 2.94a85 85 0 00-7.75 7.06l-1-2c2.39-3.93 3.95-5.97 8-8l2-5q2.43-2.57 5-5a97 97 0 003-4" fill="#7D7D7D"/><path d="M1169 1289c2.06.44 2.06.44 4 1l-5.31 4.44-2.99 2.49c-2.7 2.07-2.7 2.07-5.7 3.07l-.32 1.82c-1.08 3.45-3.56 4.26-6.62 5.99l-3.27 1.9-2.79 1.29-2-1 3-2 1-3c2.07-.73 2.07-.73 4.56-1.19l2.51-.48 1.93-.33.19-2.87.81-3.13c2.25-1.06 2.25-1.06 5-2 2.73-2.48 2.73-2.48 5-5z" fill="#B3B3B3"/><path d="M582 993a47 47 0 013 7l-1 1a192 192 0 00-.69 9.72L583 1016l-3 1q-.08-5.44-.13-10.87l-.05-3.13-.02-2.99-.03-2.76C580 995 580 995 582 993" fill="#E4E3E1"/><path d="M537 1402h7l1 3 16 2v2h9v3l4 1h-6v-2l-2.15-.18-2.79-.26-2.77-.24C558 1410 558 1410 557 1409q-2.2-.44-4.44-.81c-5.51-1.04-10.44-2.95-15.56-5.19z" fill="#B7B7B7"/><path d="m802.16 1432.9 3.9.04 3.91.02 3.03.04v3h-40v-1l2.28-.08q5.08-.16 10.16-.36l3.59-.12 3.4-.13 3.16-.1c3.15-.28 3.14-1.2 6.57-1.3" fill="#5D5D5D"/><path d="M1332 388c2.5 1.31 2.5 1.31 5 3v3h2l2 7h2l3.13 7.52c.87 2.48.87 2.48.87 5.48l-.81-1.94c-1.08-2.39-1.08-2.39-4.19-3.06-1.57-2.84-1.57-2.84-3.12-6.37l-1.58-3.53c-1.3-3.1-1.3-3.1-2.3-6.1h-2z" fill="#4D4D4D"/><path d="M166 389c0 3.91-1.32 6.51-3 10l-2 1a136 136 0 00-3.13 6.56l-1.63 3.63L155 413h-2l.25 2.31c-.25 2.69-.25 2.69-2.13 4.32L149 421l-2 3c.31-2.37.31-2.37 1-5l3-2 2-6q1.25-2.26 2.56-4.5c2.02-3.51 3.13-6.41 3.44-10.5h2v-2h3l.44-1.94C165 390 165 390 166 389" fill="#878787"/><path d="M763 1135h1v22h-4q.17-4.93.37-9.87l.1-2.84.12-2.72.09-2.51c.32-2.06.32-2.06 2.32-4.06" fill="#121114"/><path d="m488 1185 3 1c.47 8.11.47 8.11-1.31 11.5-3.06 2.71-5.99 2.61-9.88 2.56l-2.73-.02-2.08-.04a32 32 0 018.25-3.12l3.75-.88z" fill="#2A2A2B"/><path d="M714 65v1l-46 3 1-3c15-.6 29.98-1.19 45-1" fill="#373737"/><path d="m309 1276 6 2v2h3v2l1.81.38c2.19.62 2.19.62 5.19 2.62v2l4 2v3c-2.63-1.52-4.84-2.84-7-5-2.07-.64-2.07-.64-4-1v-2h-2v-2h-2l-1-2c-2.02-.65-2.02-.65-4-1z" fill="#8F8F8F"/><path d="m483.34 1130.52 1.66.48v3l-2.74-.32-3.58-.37-3.55-.38c-3.07-.2-3.07-.2-5.05 1.3-1.43 1.99-1.43 1.99-1.08 5.77l-3 1c-.28-3.64-.45-6.18 1.31-9.44 4.78-2.78 10.72-2.22 16.03-1.04" fill="#0B0A0C"/><path d="M789 1142c2 2 2 2 3.38 5.44 1.91 4.2 1.91 4.2 5.62 6.56 3.65.72 3.65.72 7 1l-1 2c-4.92.52-7.93.58-11.94-2.5-2.57-2.46-3.56-4.29-4.06-7.81 0-3.69 0-3.69 1-4.69" fill="#0A0A0A"/><path d="M681 68v1c-6.74 1.26-13.13 2.26-20 2v2h-10l1-3c19.97-2.3 19.97-2.3 29-2" fill="#878787"/><path d="M128 1041c2 1.81 2 1.81 4 4v3h4v6h2l.88 3.13q1.43 4.97 3.12 9.87c-3.04-2.03-3.75-2.73-5-6v-4l-3-1c-1.61-2.87-1.61-2.87-3.19-6.44l-1.6-3.56c-1.21-3-1.21-3-1.21-5" fill="#A2A2A2"/><path d="m1338 1104 1 3h-2l-1 5h-2l-.25 2.38-.75 2.62-4 2c-.81 2.56-.81 2.56-1 5h-2v2l-2-1c3.64-6.54 3.64-6.54 5.62-9.12 1.6-2.18 2.47-4.36 3.38-6.88h2v-3h3z" fill="#3C3C3C"/><path d="m1270 1195 2 1-2 2-.81 2.94c-1.19 3.06-1.19 3.06-3.44 4.37-4.19 2.57-6.23 6.55-8.75 10.69l-3-1c3.75-5.87 3.75-5.87 6-7l.81-2.31c1.47-3.32 3.33-4.53 6.19-6.69 1.76-2.13 1.76-2.13 3-4" fill="#6D6D6D"/><path d="m1384 1008 1 2q-1.09 2.93-2.23 5.82c-1.08 3.06-1.44 5.97-1.77 9.18h-3l-.38 2.31c-.62 2.69-.62 2.69-2.62 5.69a27.4 27.4 0 012-12h2v-5l3-1-.13-2.37c.13-2.63.13-2.63 2.13-4.63" fill="#B7B7B7"/><path d="M688.78 67.9h2.12l6.6.04 4.51.01 11 .05v1l-2.66.07-9.69.3q-2.1.08-4.2.12l-6.02.2-3.67.1c-2.68-.1-2.68-.1-3.77 1.21q-3.52.1-7.06.06l-3.9-.03L669 71c5.73-3.58 13.25-3.13 19.78-3.1" fill="#F0F0F0"/><path d="m847.82 1426.9 4.75.04 2.44.01 5.99.05v1l-3 .18q-1.9.14-3.87.26l-3.87.24c-3.14.11-3.14.11-5.26 1.32q-2.5.33-5 .53l-3 .27-3.12.26-3.15.28-7.73.66 1-3 1.73-.08q3.86-.16 7.7-.36l5.32-.25 2.4-.1c3.22-.36 2.6-1.2 6.67-1.3" fill="#BBBBBB"/><path d="M589 1417h12v2l10 1v2l-18-1v-2h-4z" fill="#5F5F5F"/><path d="m945.45 1146.73 3.8.46 3.83.42 2.92.39v2l-15 1-1 5-1 2h-3c1.57-5.65 3-10.77 9.45-11.27" fill="#070708"/><path d="M1410 933c2.78 8.03-.71 18.52-4 26h-1v-13h2l.4-2.34.54-3.03.52-3.03c.54-2.6.54-2.6 1.54-4.6" fill="#565656"/><path d="m375 175 2 1c-1.64 3.46-2.42 4.77-6.06 6.19L368 183l-2 2-2.44.94A13 13 0 00358 190l-3-1c1.26-2.53 2.53-2.76 5-4l1-2c1.78-1.07 1.78-1.07 3.94-2.12l2.15-1.08c1.91-.8 1.91-.8 3.91-.8v-2c1.87-1.06 1.87-1.06 4-2" fill="#9D9D9D"/><path d="m604 1421 6.88.94 3.86.52c3.26.54 3.26.54 5.26 1.54q2.8.34 5.63.56l3.03.26 2.34.18v2l-6.37.13-3.59.07c-3.04-.2-3.04-.2-5.04-2.2-2.89-.46-2.89-.46-6.12-.62l-3.33-.23-2.55-.15z" fill="#2F2F2F"/><path d="m220 314 2 1c-1.37 2-1.37 2-3 4h-2l-.75 2.88C215 325 215 325 212.94 326.19L211 327l-1 3h-3l-.44 2.38C206 335 206 335 205 337l-2-1 1-4h2v-3h3l.25-1.62c1.9-6.03 5.92-9.65 10.75-13.38" fill="#555555"/><path d="m1394 983 1 2q-1.08 2.94-2.25 5.84c-.91 2.37-.91 2.37-1.19 5.85-.65 3.87-1.94 5.45-4.56 8.31l-2 3 .44-2.06c.63-3.3 1.1-6.61 1.56-9.94h2v-5l3-1 .44-2.94c.56-3.06.56-3.06 1.56-4.06" fill="#989898"/><path d="M1015 1171h19v4h-16l2-2-5-1z" fill="#5D5D5C"/><path d="M977 1171h19l-1 4h-15l4-2-7-1z" fill="#5D5C5D"/><path d="M740 1172c4.05 1.35 4.6 3.22 6.69 6.88l1.88 3.24C750 1185 750 1185 750 1188c-4.39-1.46-4.88-3.98-7-8h-2c-1.35-2.71-1.07-5.01-1-8" fill="#0E0E0E"/><path d="M485.02 1171.67q2.52 1.1 4.98 2.33v2l-2.66-.29-3.52-.34q-1.72-.16-3.48-.35c-3.37-.02-5.35.5-8.34 1.98 2.34-6.52 6.18-7.6 13.02-5.33" fill="#101011"/><path d="m101 519 3 1-2.81 10-.79 2.83A173 173 0 0195 549c-1.03-3.61-.81-6.05-.06-9.75l.59-2.98L96 534l3-1v-7h2z" fill="#4A4A4A"/><path d="M181 366c0 2.62-.31 4.51-1 7h-2v3h-3l-1 5h-2l-.25 1.75c-.96 2.87-2.53 4.25-4.75 6.25l2-7h2l-.25-2.31c.25-2.69.25-2.69 2.12-4.5C175 374 175 374 177 374l.87-3.44L179 367z" fill="#8A8A8A"/><path d="m337 202 2 1-1 2h-3v3h-2l-1 3c-3 2-3 2-6 2v2c-2.91 1.26-4.8 2-8 2 1.84-3.33 3.57-4.35 7.06-5.5 3.14-.93 3.14-.93 5.06-3.44L331 206c3.12-2.25 3.12-2.25 6-4m683-82c4.2 1.3 7.98 2.91 11.88 4.94a87 87 0 0010.81 4.81C1046 131 1046 131 1047 133h-4v-2l-8-1v-2h-3v-2h-6l-1-3a69 69 0 00-4-1z" fill="#A6A6A6"/><path d="M211 1174c4.21 3.95 7.7 8.32 11.23 12.89 1.6 2.19 1.6 2.19 3.77 3.11.63 2.06.63 2.06 1 4l-3-1v-2l-5-2v-3l-3-1q-1.05-2.48-2-5l-2-1c-.62-2.56-.62-2.56-1-5" fill="#5B5B5B"/><path d="m1000 1389 1 2c-4.1 2.99-6.98 3.3-12 3v2l-3.25.44c-2.67.4-5.16.84-7.75 1.56a15.4 15.4 0 016.94-4.69l2.02-.76c2.04-.55 2.04-.55 6.04-.55v-2z" fill="#505050"/><path d="M419 1351c2.94.38 2.94.38 6 1l1 2q2.38 1.26 4.81 2.38c3.71 1.78 6.55 3.38 9.19 6.62h-4v-2h-4l-1.31-1.37c-1.75-1.94-1.75-1.94-5.19-2.63-4.6-1.31-4.6-1.31-6.5-4z" fill="#595959"/><path d="M1017 1130h19v2h-16l-1 5h-2z" fill="#080808"/><path d="M1372 1033h3l-2 8h-3l-.38 2.18a48 48 0 01-2.5 7.88l-.99 2.54a30 30 0 01-4.13 6.4c.66-4.35 2.27-7.97 4-12 .69-2.78.69-2.78 1-5h2l1-4h2z" fill="#999999"/><path d="m924.72 1412.9 3.34.04 3.35.02 2.6.04v1h-7l-1 3-15 1 1-2c2.02-.6 2.02-.6 4.5-1.06 3.06-.59 5.25-1.93 8.21-2.04" fill="#3C3C3C"/><path d="m1021.9 1154.66 2.11.05 2.3.03 2.38.07 2.41.04q2.95.06 5.9.15l-1 3h-19c3-3 3-3 4.9-3.34" fill="#2D2C2E"/><path d="m65 794 3 1v28h-1z" fill="#9D9D9D"/><path d="m858 1172 5.75-.13 3.23-.07c2.94.2 4.54.67 7.02 2.2v3l-1.72-.46c-5.68-1.35-10.95-2.46-16.28.46z" fill="#060606"/><path d="M1430 659h1l.18 2.37.26 3.07.24 3.06c.05 2.44.05 2.44 1.32 3.5q.13 2.56.1 5.13l-.01 3.13-.03 3.3-.01 3.31-.05 8.13h-1c-1.26-11.7-2.36-23.22-2-35" fill="#737373"/><path d="M84 916h1v5l3 1c1.1 6.99 2.17 13.97 3 21h-2a57 57 0 01-2-17h-3z" fill="#606060"/><path d="M889 895v1h-6l-1 3c-3.29.8-4.71 1.1-8 0a248 248 0 00-10.46-.69L858 898v-1l3.98-.18 5.21-.26 2.62-.12c6.48-.32 12.69-1.57 19.19-1.44" fill="#D8D7D3"/><path d="M439 140c-3.98 4.39-8.48 6.16-14 8l-2 2-3-1c1.4-2.8 3.27-3.57 6-5h3v-3c6.62-2.13 6.62-2.13 10-1" fill="#939393"/><path d="M1027 1379c-3.12 3.12-5.92 3.96-10.31 4.13l-2.69-.13v3c-4.12 1.29-7.67 2.26-12 2a26 26 0 019-3v-3l4.98-1.42q2.92-.85 5.83-1.77c3.19-.81 3.19-.81 5.19.19" fill="#6C6C6C"/><path d="m656.9 1154.66 2.11.05 2.3.03 2.38.07 2.41.04q2.95.06 5.9.15v3h-20c3-3 3-3 4.9-3.34" fill="#252426"/><path d="m631 1426 33 4v1h-18v-2l-1.76.04c-4.54.05-8.77-.12-13.24-1.04z" fill="#4A4A4A"/><path d="M579 1155h13v3h-20v-1l7-1z" fill="#252427"/><path d="M510 1392c4.38.82 8.68 1.9 13 3v2h7v3h6l1 2-9-1v-2l-7-1v-2l-3.25-.31c-3.61-.66-5.11-1.26-7.75-3.69" fill="#ACACAC"/><path d="M750 1186c3 3.75 3 3.75 3 6h2l2-5 3 1-5 8c-3-1-3-1-4.75-3.31-1.25-2.69-1.25-2.69-.94-5z" fill="#1C1B1C"/><path d="M633 1129h2a28 28 0 01-3.38 9.75l-1.27 2.36C629 1143 629 1143 626 1144c3.43-11.43 3.43-11.43 7-15" fill="#101010"/><path d="m854.13 1427.94 3.88.03 3 .03v1H854v2h-20v-1l2.34-.18 3.03-.25q1.5-.14 3.02-.25c11.38-1.38 11.38-1.38 11.74-1.38" fill="#5A5A5A"/><path d="M1133 1320v2h-2v2h-5l-.69 1.94c-1.31 2.06-1.31 2.06-3.94 2.81l-2.37.25-1 3-2-1c10.37-11 10.37-11 17-11" fill="#464646"/><path d="M794 1172h15v3h-15z" fill="#302C2B"/><path d="M1414 908h3l-.62 2.93c-1.53 7.34-2.87 14.57-3.38 22.07h-2l1-15h2z" fill="#939393"/><path d="M79 893h1v7l3 1 1 15h-2v-10h-3z" fill="#656565"/><path d="M798 1197h12v3h-20v-1l8-1z" fill="#323134"/><path d="M916 1415a55 55 0 01-10 4l-1.94.63c-3.02.54-5.99.43-9.06.37l1.87-.87c2.26-1.07 2.26-1.07 4.13-3.13 2.21-.41 2.21-.41 4.81-.62l2.58-.23q3.8-.21 7.61-.15" fill="#BBBBBB"/><path d="M92 943h1l3 13 .64 2.76c.73 3.14 1.36 6.01 1.36 9.24-2-1-2-1-3-3.44-2.04-7.26-3.28-14.01-3-21.56" fill="#494949"/><path d="M80 893h1v5h2c1.55 3.1 1.44 6.37 1.72 9.79.05 2.18.05 2.18 1.28 3.21q.1 2.54.06 5.06l-.02 2.79L86 921h-1c-1.7-5.89-2.35-11.43-2.66-17.56L82 901l-2-1z" fill="#C8C8C8"/><path d="m242 289 2 1c-2.35 3.86-3.88 6.15-8 8l-1 3h-2v2h-2l-1 3-2-1 1-3h3v-2h2l.28-1.77c.89-2.76 2.18-3.99 4.28-5.98l1.94-1.86z" fill="#969696"/><path d="m1166 206 5 1v2l3.44.94C1178 211 1178 211 1179 212q.06 2.5 0 5l3 1-5-1v-2h-2v-3l-6-2v-2l-3-1z" fill="#727272"/><path d="m416 150 2 1-5 2v2c-2.91 2.04-4.4 3-8 3v2c-3 2-3 2-5.19 1.63L398 161l1.71-1.02 2.23-1.35 2.21-1.34c1.99-1.17 1.99-1.17 2.85-3.29h4v-2c2.37-1.06 2.37-1.06 5-2" fill="#7B7B7B"/><path d="M664 1430h13v2h11v1c-8.07.1-15.99.03-24-1z" fill="#9D9D9D"/><path d="M561 1171h2a36 36 0 012 6l-2 3-1-3-1.38 1.5C559 1180 559 1180 557 1180c.53-3.79 1.38-6.17 4-9" fill="#202021"/><path d="m465 1153 15 2-1 3c-8.64.44-8.64.44-13-3z" fill="#212021"/><path d="M119 474h3l-2 10h-3l-.38 2.06c-.71 3.37-1.65 6.64-2.62 9.94-1.35-3.68-.62-5.74.81-9.31 1.63-4.2 3.03-8.34 4.19-12.69" fill="#545454"/><path d="m1345 412 3 2v2h2l.94 2.44c.82 2.45.82 2.45 2.06 3.56q.06 3 0 6h2v2h-3v-6l-3-1v-3h-2z" fill="#B9B9B9"/><path d="M655 1142h15v3c-5.13.1-9.95.04-15-1z" fill="#3C3A3D"/><path d="M654 1130h17v3h-16z" fill="#29272A"/><path d="M146 1077c5.92 4.82 8.93 12.84 11 20-4.71-4.03-7.07-9.21-9-15l-2-1z" fill="#3E3E3E"/><path d="M579.56 84.94 582 85v3l-3.75.32c-5.07.53-9.85 1.79-14.75 3.16C561 92 561 92 559 91c3.43-1.96 6.83-2.74 10.68-3.56 3.42-.73 6.63-2.42 9.88-2.5" fill="#858585"/><path d="M1430 818h2l-2 23h-1q-.05-5.47-.06-10.94l-.03-3.15-.01-3-.01-2.78c.11-2.13.11-2.13 1.11-3.13" fill="#CACACA"/><path d="m472 1173 2 1-1.02 1.83-1.36 2.42-1.33 2.39A153 153 0 00467 1187c-1-1-1-1-1.44-3.62.62-4.75 3.15-7.07 6.44-10.38" fill="#0D0C0E"/><path d="M137 443c0 3 0 3-1.44 5.31-1.71 2.95-2.17 5.32-2.56 8.69h-2l-1 5h-2l-1 2 1-5h2l.26-1.72c1.09-5.96 2.94-9.57 6.74-14.28" fill="#9E9E9E"/><path d="M534 97h4v2l-2.96.8-3.85 1.08-3.83 1.05c-3.44.93-3.44.93-6.36 3.07-2.19-.37-2.19-.37-4-1 5.91-3.71 9.93-5.28 17-5z" fill="#3E3E3E"/><path d="m199 1159 1.25 1.38c1.65 1.73 1.65 1.73 3.81 2.43 2.88 1.76 3.12 4.04 3.94 7.19h2l1 4h-2v-2l-3-1-3-5-2.19-1.56L199 1163z" fill="#727272"/><path d="M576 1142h14v3h-11v-2z" fill="#313035"/><path d="M110 998c3.49 2.33 3.57 3.09 4.56 7 .96 3.92.96 3.92 3.44 7 .13 2.63.13 2.63 0 5h2l-1 3c-2-2-2-2-2.5-4.56l-.5-2.44-2-1c-2.2-4.4-3.02-9.21-4-14" fill="#858585"/><path d="m1152 195 6 2v2h4l1 2 3 1-1 4a107 107 0 01-5-4v-2h-5v-3h-3z" fill="#5E5E5E"/><path d="M643 73v2l-3.03.4-3.91.54-3.9.52c-3.01.2-3.01.2-4.16 1.54q-3.5.06-7 0c2.73-2.73 5.66-2.94 9.31-3.62l2.02-.41c3.6-.7 7-1.13 10.67-.97" fill="#A7A7A7"/><path d="M828 69h22v2l2 1-24-2z" fill="#424242"/><path d="M467 1140q2.41.42 4.81.88l2.71.49c2.48.63 2.48.63 5.48 2.63-3 2-3 2-5.23 1.64l-2.39-.83-2.42-.79C468 1143 468 1143 467 1140" fill="#1F1F20"/><path d="M582 1003h1v13l-3 1-.2-8.3c.2-2.7.2-2.7 2.2-5.7" fill="#EFEFF0"/><path d="M1399 967h1v6h-2l.19 3.38-.19 3.62-3 2q.14-2.62.31-5.25l.18-2.95c.56-3.06 1.41-4.54 3.51-6.8" fill="#A8A8A8"/><path d="M559 91v1c-5.77 2.07-11.83 4-18 4v-2a39.6 39.6 0 0118-3" fill="#2E2E2E"/><path d="m398 1338 7 2v2l3.44.81L412 1344l1 3c-6.1-1.27-10.34-3.85-15-8z" fill="#B5B5B5"/><path d="M305 230v2l-1.94.31-2.06.69-1 3-5 1v3h-2v2l-3-1c1.45-3.83 3.36-5.22 7-7h3v-2c3-2 3-2 5-2" fill="#8C8C8C"/><path d="M516 106a53 53 0 01-17 6v-3h7l1-3c6.75-1.13 6.75-1.13 9 0" fill="#484848"/><path d="M1158 1301v3c-2.55 1.86-2.55 1.86-5.88 3.75l-3.3 1.92-2.82 1.33-2-1 3-2 1-3c2.03-.91 2.03-.91 4.5-1.62 3.02-.73 3.02-.73 5.5-2.38" fill="#727272"/><path d="M794 1184h14v3q-2.65.12-5.31.19l-2.99.1c-2.7-.29-2.7-.29-5.7-3.29" fill="#3F3C40"/><path d="m585.75 1129.81 2.98.08 2.27.11v3h-15c4.2-3.16 4.85-3.36 9.75-3.19" fill="#302F2F"/><path d="M1413 576h3v10h2v10h-1z" fill="#5D5D5D"/><path d="m1086 152 7 1 1 3 5 1v2h2l-1 2-3.12-1.81c-2.4-1.38-4.76-2.62-7.25-3.81C1087 154 1087 154 1086 152" fill="#383838"/><path d="M1080 150c5.75 1.75 5.75 1.75 8 4l3.5 1.44c3.5 1.56 3.5 1.56 5.5 4.56h-3v-2h-4v-2l-5-1v-2h-4z" fill="#B3B3B3"/><path d="M936 92c11.52.78 11.52.78 17 3v1h-10v-2h-7z" fill="#CBCBCB"/><path d="M1358 1066c.95 2.17 1.14 3.56.4 5.82q-1.15 2.62-2.4 5.18h-2l-1 5-2-1a78 78 0 017-15" fill="#3B3B3B"/><path d="M87 574h1v8h-2v9l-3 1 .44-2c.44-2.35.75-4.63 1-7 .38-3.27 1.15-6 2.56-9" fill="#BCBCBC"/><path d="m809 508-4 1v2l4 1-13 1c2.68-2.68 3.72-3.53 7.06-4.75l2.1-.8C807 507 807 507 809 508" fill="#C2C2C1"/><path d="M1388 499c3.46 1.73 3.89 5.68 5.11 9.19A44 44 0 011395 517h-2l-.59-1.79c-1.66-5.06-1.66-5.06-3.6-10.02-.81-2.19-.81-2.19-.81-6.19" fill="#777777"/><path d="M1318 366c1.5 1.38 1.5 1.38 3 3v2h2l.81 1.81A18 18 0 001328 378l-1 3q-1.76-1.9-3.5-3.81l-1.97-2.15C1320 373 1320 373 1320 370h-2z" fill="#757575"/><path d="M191 352c0 3.87-1.42 6.51-3 10h-3l-2 4-1-2c1.24-3.73 3.21-5.27 6-8a97 97 0 003-4" fill="#898989"/><path d="M532 1401c3.66.63 6.88 1.64 10.31 3.06l2.68 1.1 2.01.84v1c-5.75.13-5.75.13-8-1v-2h-7z" fill="#2F2F2F"/><path d="M792 1190h1v7l7 1v1h-10c.87-7.87.87-7.87 2-9" fill="#020103"/><path d="M179 1131c4.24 3.88 7.11 8.04 10 13h-3l-1.25-2.81c-1.48-3.23-1.48-3.23-3.94-4.81L179 1135z" fill="#616161"/><path d="m1352 1077 1 3q-1.95 2.53-4 5a133 133 0 00-4 8l-1-3 2-3 .37-3.06.63-2.94c2-1.25 2-1.25 4-2z" fill="#969696"/><path d="m655 891-1 2-5-1-1 2c-2.06 1.13-2.06 1.13-4 2v-2l-4-1 5.25-1.56 2.95-.88c2.76-.55 4.19-.5 6.8.44" fill="#E2E0DB"/><path d="M424 741h-2v2c-5.49 1.87-10.22 2.24-16 2a45 45 0 019.56-3.69l2.88-.82C421 740 421 740 424 741" fill="#B0ADA9"/><path d="M1404 542h2c2.01 5.78 2.22 10.9 2 17h-1c-2.25-5.56-2.6-11.08-3-17" fill="#575757"/><path d="M611 1422h13v2h7v1c-7.03.24-13.18-.21-20-2z" fill="#A3A3A3"/><path d="M1193 1273v3a84 84 0 01-4.49 3.72c-1.78 1.39-1.78 1.39-3.51 4.28l-4-1 4.59-3.61c1.68-1.45 1.68-1.45 2.41-4.39 2.56-1.19 2.56-1.19 5-2" fill="#505050"/><path d="m154 1089 4 2v4h2l2 8c-4.06-2.03-5.76-7.35-7.25-11.44z" fill="#A9A9A9"/><path d="M1423 874h1l-1 17h-2l-1 2v-7h2l-.06-3.19c.05-3.14.33-5.78 1.06-8.81" fill="#8C8C8C"/><path d="m1418 597 3 1 1 16h-2l-.18-2.2c-.43-4.97-.89-9.89-1.82-14.8" fill="#6F6F6F"/><path d="M86 574c.56 1.94.56 1.94 1 4l-1 1-.68 5.79A59 59 0 0183 594h-1c-.38-6.77.82-12.58 3-19z" fill="#585858"/><path d="m1190 225 6 2v2h3l3 6h-3l-2-5h-4v-2l-3-1z" fill="#707070"/><path d="M925 87h8v2l3.44.38L940 90l1 2h-5v-2l-3.25.19c-3.86-.2-5.04-.59-7.75-3.19" fill="#6B6B6B"/><path d="M856 73c5.42-.23 9.77.53 15 2v1h-14z" fill="#ABABAB"/><path d="m838 70 18 2v1h-18z" fill="#A0A0A0"/><path d="M861 1424h15v1h-8v2h-7z" fill="#B6B6B6"/><path d="M1071 1358q-2.84 1.48-5.69 2.94l-3.2 1.65a28 28 0 01-8.11 2.41l1-2c2.56-.62 2.56-.62 5-1v-2q2.19-.8 4.37-1.56l2.47-.88c2.16-.56 2.16-.56 4.16.44" fill="#707070"/><path d="m361 1315 1.81.94A22 22 0 00368 1318v2l1.75.88L376 1324l-2 1c-2.62-.94-2.62-.94-5-2v-2h-4c-2.25-3-2.25-3-4-6" fill="#696969"/><path d="m97 963 3 2c.19 3.13.19 3.13 0 6l3 1v7c-3.12-3.26-3.74-6.59-4.57-10.88-.42-2.29-.42-2.29-1.43-5.12" fill="#6F6F6F"/><path d="m70 845 3 1v15h-1c-1.19-5.38-2.29-10.45-2-16" fill="#8C8C8C"/><path d="M1382 487q1.53 1.98 3 4l1.63 2.19c1.88 3.85 2.1 7.57 2.37 11.81l-2-1v-6l-3-1c-1.52-3.6-2-6.05-2-10" fill="#BFBFBF"/><path d="M166 389c0 3.96-1.21 6.49-3 10-2.19 1.44-2.19 1.44-4 2v-5h2v-2h3l.44-1.94C165 390 165 390 166 389" fill="#555555"/><path d="M289 242c0 3 0 3-2.31 5.5L284 250l-1.81 1.81L281 253l-3-1c3.49-3.6 7.11-6.83 11-10" fill="#919191"/><path d="m469 122 4 1c-4.61 3.45-8.36 4.83-14 6v-3h5v-2h5z" fill="#3E3E3E"/><path d="m1188 1278-4.81 3.94-2.71 2.21C1178 1286 1178 1286 1175 1287v-2l1.87-.75c2.27-1.06 2.27-1.06 3.07-3.25 1.06-2 1.06-2 3.56-3.31 2.5-.69 2.5-.69 4.5.31" fill="#BFBFBF"/><path d="m300 1267 3 1v2l1.88.75c2.47 1.46 3.07 2.63 4.12 5.25-3.37-.56-3.37-.56-7-2-1.44-3.62-1.44-3.62-2-7" fill="#6C6C6C"/><path d="m1292 330 2 1v2l5 1 1 6c-1.94-.81-1.94-.81-4-2l-1-3h-2z" fill="#5A5A5A"/><path d="M1113 169h4v2l5 1v2l4 2c-3 0-3 0-6-1v-2l-5-1v-2z" fill="#606060"/><path d="M883 78c4.82-.19 8.5.24 13 2v1h-13z" fill="#BCBCBC"/><path d="m511 1393 10 3v2l-9-1z" fill="#484848"/><path d="m1317 1134 1 2-2 1-1 3-1.88 1.38c-2.48 1.9-3.64 3.88-5.12 6.62 0-3.44.38-4.96 2-8a82 82 0 017-6" fill="#CACACA"/><path d="M74 868h1l2 17-1-2h-2z" fill="#464646"/><path d="M537 1402h7l1 3 2.88.38c3.12.62 3.12.62 5.12 2.62-5.76-.61-10.72-2.76-16-5z" fill="#888888"/><path d="M343 1302c3.91 1.65 6.79 4.27 10 7l3 2c-3.57-.61-6.82-1.24-10-3-1.81-3.12-1.81-3.12-3-6" fill="#565656"/><path d="M128 1041c4.51 3.55 6.47 8.6 8 14l-1 2-3.5-6.87-1.01-1.98c-2.49-4.92-2.49-4.92-2.49-7.15" fill="#585858"/><path d="M117 484h1v8h-2v6h-3c.99-4.84 1.96-9.48 4-14" fill="#BFBFBF"/><path d="M173 376c1 3 1 3 .33 4.97l-1.08 2.09-1.05 2.1C170 387 170 387 167 389l2-7h2v-5z" fill="#535353"/><path d="m391 166 1 2-2.12 1.02-5.5 2.69c-2.48 1.2-2.48 1.2-4.38 3.29l-3-1c4.05-4.83 7.97-6.38 14-8" fill="#818181"/><path d="M683 68v3h-14c4.74-2.37 8.67-3 14-3" fill="#C4C4C4"/><path d="M1043 1372c-3 2-3 2-7 2v2l-7 2c3.45-3.97 8.47-8.76 14-6" fill="#595959"/><path d="M253 1223h2v2h2v2h4l1 5-6-3v-2h-2z" fill="#959595"/><path d="M558 1179c1.39 4.18-.18 6.13-2 10l-3-1c1.09-3.78 1.91-6.47 5-9" fill="#191A1A"/><path d="M1290 1171c1 3 1 3 .07 5.04l-1.38 2.15-1.37 2.17-1.32 1.64h-2l-1 3v-4l2-1 2-5a73 73 0 013-4" fill="#434343"/><path d="M189 1144c3 3.75 3 3.75 3 6l1.88.13 2.12.87a31 31 0 012 6c-2-1.37-2-1.37-4-3v-2l-3-1c-2-3-2-3-2-7" fill="#757575"/><path d="M1339 1097c.75 1.69.75 1.69 1 4-1.88 2.56-1.88 2.56-4 5l-1 3-3 1v-2h2l.25-2.12c.92-3.53 2.63-5.94 4.75-8.88" fill="#C3C3C3"/><path d="M138 1058h3v5h2c2.13 4.63 2.13 4.63 1 8l-3-5.37-1.69-3.03C138 1060 138 1060 138 1058" fill="#D5D5D5"/><path d="M1380 1019h1v6h-3l-.38 2.31c-.62 2.69-.62 2.69-2.62 5.69-.23-3.37-.34-5.41 1.37-8.37l1.63-1.63h2z" fill="#757575"/><path d="m101 519 3 1-4 14h-1v-8h2z" fill="#383838"/><path d="M105 519h1c.42 4.65-.9 7.88-3 12l-3 2c.57-4 1.9-6.59 4-10 .7-2.19.7-2.19 1-4" fill="#CECECE"/><path d="m220 314 2 1c-1.37 2-1.37 2-3 4h-2l-2 6-2-1c.15-2.71.48-4.47 2.4-6.45q2.26-1.83 4.6-3.55" fill="#7B7B7B"/><path d="m483 118 1 3c-9.41 3.26-9.41 3.26-14 4 2.41-2.79 4.76-3.9 8.19-5.19l2.73-1.04z" fill="#A3A3A3"/><path d="M824 1429h10v2l-11 1z" fill="#CECECE"/><path d="M350 1307h4v2l4 1v2l3 1v2l-5-2v-3l-1.87-.37C352 1309 352 1309 350 1307" fill="#AFAFAF"/><path d="m232 1200 3 1v2h2l4 7-2 1-1-3-2.5-2.5c-2.5-2.5-2.5-2.5-3.5-5.5" fill="#5F5F5F"/><path d="m1297 1158 4 1-2.81 3.94-1.58 2.21C1295 1167 1295 1167 1292 1168c1.15-2.47 2.05-4.05 4-6 .64-2.07.64-2.07 1-4" fill="#BDBDBD"/><path d="m852 1154 3 1-2 3c-2.38.29-2.38.29-5.13.19l-2.75-.08-2.12-.11v-1l3.37-.94c3.42-.88 3.42-.88 5.63-2.06" fill="#252425"/><path d="m1017 1130 9 1v1h-6l-1 5h-2z" fill="#010000"/><path d="M1419 893h1c-.96 10.56-.96 10.56-2 15h-1v-12h2z" fill="#B5B5B5"/><path d="M144 424h3c-1.37 4-3.26 6.8-6 10v-5h2z" fill="#3E3E3E"/><path d="m1223 255 5 2v2l3 1v2h2l-1 2-4-2v-2h-2v-2l-3-1z" fill="#A2A2A2"/><path d="M589 1417h12v2l2 1c-9.41-.96-9.41-.96-14-2z" fill="#ACACAC"/><path d="M389 1334c5.53 1.19 8.18 2.6 12 7a32 32 0 01-8.25-3.06l-2.14-1.1-1.61-.84z" fill="#6D6D6D"/><path d="m1214 1253 2 1c-3.13 3.39-5.57 5.61-10 7 1.5-4.21 4.29-5.74 8-8" fill="#A8A8A8"/><path d="M909 1071h8v3h-8z" fill="#292729"/><path d="m897 894-1 3-6 1-1-4c5.75-1.13 5.75-1.13 8 0" fill="#E8E6E3"/><path d="M1340 403c4.51 3.34 6.68 5.33 8 11l-3-2v-2l-3-1c-1.19-3.06-1.19-3.06-2-6" fill="#828282"/><path d="m1213 245 3 2v2a47 47 0 007 3l-1 2-5-2v-2h-3z" fill="#A0A0A0"/><path d="m1202 235 7 2 1 5h-2v-2l-2.44-.81L1203 238z" fill="#555555"/><path d="m450 132 4 1c-1.31 1.5-1.31 1.5-3 3h-3v2h-6a47 47 0 017-3z" fill="#A8A8A8"/><path d="M891 79h12v2l2 1c-9.41-.96-9.41-.96-14-2z" fill="#454545"/><path d="M961 1404c-2.78 2.78-5.15 2.54-9 3q-2.5.48-5 1c4.11-3.48 8.66-6.06 14-4" fill="#606060"/><path d="M419 1351c2.81.19 2.81.19 6 1 1.88 2.56 1.88 2.56 3 5-5.49-.61-5.49-.61-7.87-2.44C419 1353 419 1353 419 1351" fill="#656565"/><path d="m1261 1206 2 1-6 9-3-1c4.14-6.43 4.14-6.43 7-9" fill="#464646"/><path d="M780 1071c3.38-.19 3.38-.19 7 0l2 3h-9z" fill="#343535"/><path d="M125 1033h3c1.86 3.13 2.2 5.37 2 9-3.09-2.53-3.91-5.22-5-9" fill="#BABABA"/><path d="m120 1020 3 1c.73 2.07.73 2.07 1.19 4.56l.48 2.51.33 1.93-2-1v-3l-3-1z" fill="#B7B7B7"/><path d="M1397 980c1 2 1 2 .25 4.88A24 24 0 011393 992c.47-4.78 1.24-8.04 4-12" fill="#2C2C2C"/><path d="m776 660 2 4-7 8-1-2c1.21-2.38 1.21-2.38 2.94-5.12l1.71-2.76z" fill="#B6B6B2"/><path d="M79 594h3l-2 13h-1z" fill="#434343"/><path d="M1408 559c2.68 1.34 2.75 2.52 3.69 5.31l.82 2.37c.53 2.5.31 3.92-.51 6.32-2.62-2.62-2.58-4.49-3.12-8.12l-.51-3.33z" fill="#797979"/><path d="m1351 420 3 1v4h2l2 7-3-2v-2h-2z" fill="#555555"/><path d="M1251 281c3 1 3 1 5 4-.37 2.19-.37 2.19-1 4-2-1.75-2-1.75-4-4z" fill="#535353"/><path d="M1047 132h4v2h5l1 4h-4v-3l-1.87-.37C1049 134 1049 134 1047 132" fill="#747474"/><path d="M1007 115q2.44.39 4.88.81l2.74.46c2.38.73 2.38.73 4.38 3.73l-2.12-.44q-4.43-.85-8.88-1.56z" fill="#9A9A9A"/><path d="m579 1415 10 1v2l-10-1z" fill="#4F4F4F"/><path d="M928 1409h10c-3.44 2.3-5.94 2.54-10 3z" fill="#CBCBCB"/><path d="M972 1398c2.06.44 2.06.44 4 1-3.13 1.86-5.37 2.2-9 2v2l-4-1 1-2q3.5-.56 7-1z" fill="#6E6E6E"/><path d="m998 1387 4 1c-2 2-2 2-5.63 2.13L993 1390v2h-3v-2c2.71-1.35 5.01-1.07 8-1z" fill="#C3C3C3"/><path d="m1052 1366-5.86 3.81a19 19 0 01-6.14 2.19v-2l3-1 1-2c5.53-2.24 5.53-2.24 8-1" fill="#ACACAC"/><path d="M245 1214c2.31.19 2.31.19 5 1 1.88 2.38 1.88 2.38 3 5l-1 3-3.5-3.94-1.97-2.21C245 1215 245 1215 245 1214" fill="#B2B2B2"/><path d="M388 1131h9l-3 2c-1.2 2.55-1.2 2.55-2 5h-1l-.37-2.37c-.42-2.77-.42-2.77-2.63-4.63" fill="#070607"/><path d="M977 1130c5.75-.13 5.75-.13 8 1v2h-7z" fill="#3A3A3B"/><path d="M1330 1110h2c-.5 4.4-2.09 6.71-5 10v-4h2l-.06-2.44c.06-2.56.06-2.56 1.06-3.56" fill="#BFBFBF"/><path d="M849 1054h2c-.57 2.87-.86 3.86-3 6l-3 1c1.07-2.92 1.78-4.78 4-7" fill="#212122"/><path d="M112 496c.88 2.47 1.13 3.64.22 6.14l-1.16 2.11-1.15 2.14L109 508c-1.16-3.48-.71-5.46 0-9h3z" fill="#626262"/><path d="M1233 264h4l1 5 3 1-1 2c-3.29-1.13-4-1.99-5.75-5.12z" fill="#6B6B6B"/><path d="m364 182 2 1-1.87.25c-2.29.55-2.29.55-3.26 2.69L360 188l-2 2-3-1c1.26-2.53 2.53-2.76 5-4l1-2z" fill="#737373"/><path d="M1035 128q2.44.39 4.88.81l2.74.46c2.38.73 2.38.73 4.38 3.73h-4v-2l-8-1z" fill="#B8B8B8"/><path d="M921 1415v2l-10 1c1-2 1-2 2.75-2.62 2.45-.41 4.77-.45 7.25-.38" fill="#4D4D4D"/><path d="M983 1392h6c-7.5 5-7.5 5-11 5v-3h5z" fill="#CACACA"/><path d="m1092 1347-2 2h-3v2h-6c2.67-3.26 6.92-6.04 11-4" fill="#414141"/><path d="M409 1346c3.91 1.16 6.87 2.36 10 5h-5v-2h-5z" fill="#444444"/><path d="m1360 1060 2 1-2.38 4.44-1.33 2.49C1357 1070 1357 1070 1355 1071l2-8h3z" fill="#9E9E9E"/><path d="M124 464h3l-4 10c-1.47-3.81-.43-6.29 1-10" fill="#4B4B4B"/><path d="M152 409h2l-3 9h-2v-4h2z" fill="#343434"/><path d="M1138 186c4.43 1.39 6.87 3.61 10 7-5.75-1.87-5.75-1.87-8-3v-2h-2z" fill="#B4B4B4"/><path d="M1169 1289c2.31.19 2.31.19 4 1-4.39 4-4.39 4-6 5l-3-1c2.25-2.56 2.25-2.56 5-5" fill="#C9C9C9"/><path d="M483 1171v1l-2.75.25c-3.65.84-4.88 1.93-7.25 4.75 0-3 0-3 1.06-4.69 2.91-1.97 5.52-1.5 8.94-1.31" fill="#363536"/><path d="M940 1151c1 3 1 3 .06 5.19L939 1158h-3q.9-3.03 2-6z" fill="#1E1E1F"/><path d="M943 1141h2l-1 7h-3c.87-4.75.87-4.75 2-7" fill="#151517"/><path d="M633 1129h2c-.75 4.75-.75 4.75-3 7l-2-1c1.87-4.87 1.87-4.87 3-6" fill="#353435"/><path d="m477 1130 8 1v3c-2.87-.31-2.87-.31-6-1z" fill="#292728"/><path d="m111 998 3 1v4h2v7c-2.08-3.85-3.5-7.9-5-12" fill="#DADADA"/><path d="m1284 321 5 1 .94 2.88c.93 2.98.93 2.98 2.06 5.12-4.56-1.73-5.91-4.82-8-9" fill="#585858"/><path d="m1106 165 7 2v3l2 1-4-1v-2h-5z" fill="#B2B2B2"/><path d="m895 1421-1 3h-9c3.35-2.23 5.99-3 10-3" fill="#383838"/><path d="M470 1375c3.72 1.21 7.38 2.51 11 4v1c-2.69.31-2.69.31-6 0-2.87-2.5-2.87-2.5-5-5" fill="#B2B2B2"/><path d="m873 1195-2 4h-5c3.62-4 3.62-4 7-4" fill="#151414"/><path d="M765 1191a28 28 0 013 9h-3z" fill="#242325"/><path d="m869 1172 5 2v3a16.6 16.6 0 01-7-3h2z" fill="#2B282A"/><path d="m668 1172 6 1v3l-6-1z" fill="#373738"/><path d="m1098 1130-1 3h-8c4.5-3 4.5-3 9-3" fill="#525050"/><path d="M1424 866h1c.19 4.82-.24 8.5-2 13h-1v-8h2z" fill="#C5C5C5"/><path d="M1417 596h1c1.45 4.54 2.24 8.18 2 13l-.94-1.94c-.89-2-.89-2-2.06-3.06-.14-2.67-.04-5.32 0-8" fill="#C4C4C4"/><path d="m943 530 5 2v2l-4 2z" fill="#E7E6E3"/><path d="M1365 448c3.86 2.57 3.94 4.61 5 9-3-1-3-1-4.19-2.81-.81-2.19-.81-2.19-.81-6.19" fill="#949494"/><path d="M1361 439h3l1 8-3-1z" fill="#686868"/><path d="M567 86h9a28 28 0 01-10 3z" fill="#262626"/><path d="M330 1292c4.75 1.88 4.75 1.88 7 3v3h-3c-2.19-3-2.19-3-4-6" fill="#898989"/><path d="m1211 1258 2 1a139 139 0 01-5 5h-2v-3c2.37-1.75 2.37-1.75 5-3" fill="#2C2C2C"/><path d="M1414 908h3l-2 10h-1z" fill="#C7C7C7"/><path d="M210 327h1v5l-3 1v2l-2-1 1-4h3z" fill="#C9C9C9"/><path d="m439 140-3.88 2-2.17 1.13C431 144 431 144 429 144v-3c6.62-2.13 6.62-2.13 10-1" fill="#4B4B4B"/><path d="m449 135-3.88 2-2.17 1.13C441 139 441 139 439 139v-3c6.62-2.13 6.62-2.13 10-1" fill="#4C4C4C"/></svg>